solid inlet_n5
facet normal -0.000494 -0.635798 -0.771855
outer loop
vertex 4.778184 0.144443 1.416853
vertex 4.777717 0.143234 1.417845
vertex 4.774944 0.139171 1.421180
endloop
endfacet
facet normal -0.000136 -0.634412 -0.772995
outer loop
vertex 4.774944 0.139171 1.421180
vertex 4.771214 0.135609 1.424103
vertex 4.766667 0.132686 1.426502
endloop
endfacet
facet normal -0.000037 -0.634485 -0.772935
outer loop
vertex 4.766667 0.132686 1.426502
vertex 4.761480 0.130514 1.428284
vertex 4.756328 0.129289 1.429289
endloop
endfacet
facet normal 0.000768 -0.775973 -0.630766
outer loop
vertex 4.756328 0.129289 1.429289
vertex 4.755853 0.129192 1.429408
vertex 4.750000 0.128801 1.429884
endloop
endfacet
facet normal -0.000768 -0.776073 -0.630643
outer loop
vertex 4.750000 0.128801 1.429884
vertex 4.744147 0.129192 1.429408
vertex 4.743672 0.129289 1.429289
endloop
endfacet
facet normal 0.000000 -0.634485 -0.772935
outer loop
vertex 4.743672 0.129289 1.429289
vertex 4.738520 0.130514 1.428284
vertex 4.733333 0.132686 1.426502
endloop
endfacet
facet normal 0.000136 -0.634367 -0.773032
outer loop
vertex 4.733333 0.132686 1.426502
vertex 4.728787 0.135609 1.424103
vertex 4.725056 0.139171 1.421180
endloop
endfacet
facet normal 0.000741 -0.635213 -0.772337
outer loop
vertex 4.725056 0.139171 1.421180
vertex 4.722283 0.143234 1.417845
vertex 4.721816 0.144443 1.416853
endloop
endfacet
facet normal 0.000000 -0.471988 -0.881605
outer loop
vertex 4.721816 0.144443 1.416853
vertex 4.720576 0.148048 1.414926
vertex 4.720000 0.153212 1.412166
endloop
endfacet
facet normal 0.001427 -0.472036 -0.881578
outer loop
vertex 4.720000 0.153212 1.412166
vertex 4.720576 0.158376 1.409405
vertex 4.721730 0.161732 1.407612
endloop
endfacet
facet normal 0.000000 -0.290620 -0.956839
outer loop
vertex 4.721730 0.161732 1.407612
vertex 4.722283 0.163525 1.407068
vertex 4.725056 0.168622 1.405522
endloop
endfacet
facet normal 0.000000 -0.290074 -0.957004
outer loop
vertex 4.725056 0.168622 1.405522
vertex 4.728787 0.173089 1.404167
vertex 4.733333 0.176755 1.403055
endloop
endfacet
facet normal -0.000056 -0.290865 -0.956764
outer loop
vertex 4.733333 0.176755 1.403055
vertex 4.738520 0.179479 1.402228
vertex 4.741916 0.180491 1.401921
endloop
endfacet
facet normal -0.000435 -0.095491 -0.995430
outer loop
vertex 4.741916 0.180491 1.401921
vertex 4.744147 0.181231 1.401849
vertex 4.750000 0.181860 1.401786
endloop
endfacet
facet normal 0.000475 -0.095494 -0.995430
outer loop
vertex 4.750000 0.181860 1.401786
vertex 4.755853 0.181231 1.401849
vertex 4.758084 0.180491 1.401921
endloop
endfacet
facet normal 0.000111 -0.290814 -0.956780
outer loop
vertex 4.758084 0.180491 1.401921
vertex 4.761480 0.179479 1.402228
vertex 4.766667 0.176755 1.403055
endloop
endfacet
facet normal 0.000000 -0.290130 -0.956987
outer loop
vertex 4.766667 0.176755 1.403055
vertex 4.771214 0.173089 1.404167
vertex 4.774944 0.168622 1.405522
endloop
endfacet
facet normal 0.000000 -0.290432 -0.956896
outer loop
vertex 4.774944 0.168622 1.405522
vertex 4.777717 0.163525 1.407068
vertex 4.778270 0.161732 1.407612
endloop
endfacet
facet normal -0.001427 -0.472038 -0.881577
outer loop
vertex 4.778270 0.161732 1.407612
vertex 4.779424 0.158376 1.409405
vertex 4.780000 0.153212 1.412166
endloop
endfacet
facet normal 0.000000 -0.471988 -0.881605
outer loop
vertex 4.780000 0.153212 1.412166
vertex 4.779424 0.148048 1.414926
vertex 4.778184 0.144443 1.416853
endloop
endfacet
facet normal 0.000064 -0.634242 -0.773134
outer loop
vertex 4.778184 0.144443 1.416853
vertex 4.774944 0.139171 1.421180
vertex 4.766667 0.132686 1.426502
endloop
endfacet
facet normal -0.032948 -0.572215 -0.819442
outer loop
vertex 4.766667 0.132686 1.426502
vertex 4.756328 0.129289 1.429289
vertex 4.750000 0.128801 1.429884
endloop
endfacet
facet normal 0.032936 -0.572243 -0.819422
outer loop
vertex 4.750000 0.128801 1.429884
vertex 4.743672 0.129289 1.429289
vertex 4.733333 0.132686 1.426502
endloop
endfacet
facet normal -0.000064 -0.634242 -0.773134
outer loop
vertex 4.733333 0.132686 1.426502
vertex 4.725056 0.139171 1.421180
vertex 4.721816 0.144443 1.416853
endloop
endfacet
facet normal -0.000054 -0.471184 -0.882035
outer loop
vertex 4.721816 0.144443 1.416853
vertex 4.720000 0.153212 1.412166
vertex 4.721730 0.161732 1.407612
endloop
endfacet
facet normal 0.000000 -0.290221 -0.956960
outer loop
vertex 4.721730 0.161732 1.407612
vertex 4.725056 0.168622 1.405522
vertex 4.733333 0.176755 1.403055
endloop
endfacet
facet normal 0.052066 -0.397585 -0.916087
outer loop
vertex 4.733333 0.176755 1.403055
vertex 4.741916 0.180491 1.401921
vertex 4.750000 0.181860 1.401786
endloop
endfacet
facet normal -0.052067 -0.397575 -0.916091
outer loop
vertex 4.750000 0.181860 1.401786
vertex 4.758084 0.180491 1.401921
vertex 4.766667 0.176755 1.403055
endloop
endfacet
facet normal 0.000000 -0.290221 -0.956960
outer loop
vertex 4.766667 0.176755 1.403055
vertex 4.774944 0.168622 1.405522
vertex 4.778270 0.161732 1.407612
endloop
endfacet
facet normal 0.000054 -0.471184 -0.882035
outer loop
vertex 4.778270 0.161732 1.407612
vertex 4.780000 0.153212 1.412166
vertex 4.778184 0.144443 1.416853
endloop
endfacet
facet normal -0.011719 -0.627500 -0.778528
outer loop
vertex 4.778184 0.144443 1.416853
vertex 4.766667 0.132686 1.426502
vertex 4.750000 0.128801 1.429884
endloop
endfacet
facet normal 0.011719 -0.627501 -0.778528
outer loop
vertex 4.750000 0.128801 1.429884
vertex 4.733333 0.132686 1.426502
vertex 4.721816 0.144443 1.416853
endloop
endfacet
facet normal 0.253843 -0.454954 -0.853569
outer loop
vertex 4.721816 0.144443 1.416853
vertex 4.721730 0.161732 1.407612
vertex 4.733333 0.176755 1.403055
endloop
endfacet
facet normal 0.000000 -0.241228 -0.970468
outer loop
vertex 4.733333 0.176755 1.403055
vertex 4.750000 0.181860 1.401786
vertex 4.766667 0.176755 1.403055
endloop
endfacet
facet normal -0.253843 -0.454954 -0.853569
outer loop
vertex 4.766667 0.176755 1.403055
vertex 4.778270 0.161732 1.407612
vertex 4.778184 0.144443 1.416853
endloop
endfacet
facet normal 0.000000 -0.640065 -0.768321
outer loop
vertex 4.778184 0.144443 1.416853
vertex 4.750000 0.128801 1.429884
vertex 4.721816 0.144443 1.416853
endloop
endfacet
facet normal 0.000000 -0.392727 -0.919655
outer loop
vertex 4.721816 0.144443 1.416853
vertex 4.733333 0.176755 1.403055
vertex 4.766667 0.176755 1.403055
endloop
endfacet
facet normal 0.000000 -0.392718 -0.919659
outer loop
vertex 4.721816 0.144443 1.416853
vertex 4.766667 0.176755 1.403055
vertex 4.778184 0.144443 1.416853
endloop
endfacet
endsolid inlet_n5
