solid inlet_n4
facet normal 0.000000 -0.634485 -0.772935
outer loop
vertex 4.243672 0.129289 1.429289
vertex 4.238520 0.130514 1.428284
vertex 4.233333 0.132686 1.426502
endloop
endfacet
facet normal 0.000136 -0.634367 -0.773032
outer loop
vertex 4.233333 0.132686 1.426502
vertex 4.228787 0.135609 1.424103
vertex 4.225056 0.139171 1.421180
endloop
endfacet
facet normal 0.000741 -0.635213 -0.772337
outer loop
vertex 4.225056 0.139171 1.421180
vertex 4.222283 0.143234 1.417845
vertex 4.221816 0.144443 1.416853
endloop
endfacet
facet normal 0.000000 -0.471988 -0.881605
outer loop
vertex 4.221816 0.144443 1.416853
vertex 4.220576 0.148048 1.414926
vertex 4.220000 0.153212 1.412166
endloop
endfacet
facet normal 0.001427 -0.472036 -0.881578
outer loop
vertex 4.220000 0.153212 1.412166
vertex 4.220576 0.158376 1.409405
vertex 4.221730 0.161732 1.407612
endloop
endfacet
facet normal 0.000000 -0.290620 -0.956839
outer loop
vertex 4.221730 0.161732 1.407612
vertex 4.222283 0.163525 1.407068
vertex 4.225056 0.168622 1.405522
endloop
endfacet
facet normal 0.000000 -0.290074 -0.957004
outer loop
vertex 4.225056 0.168622 1.405522
vertex 4.228787 0.173089 1.404167
vertex 4.233333 0.176755 1.403055
endloop
endfacet
facet normal -0.000056 -0.290763 -0.956795
outer loop
vertex 4.233333 0.176755 1.403055
vertex 4.238520 0.179479 1.402228
vertex 4.241916 0.180491 1.401921
endloop
endfacet
facet normal -0.000237 -0.096275 -0.995355
outer loop
vertex 4.241916 0.180491 1.401921
vertex 4.244147 0.181231 1.401849
vertex 4.250000 0.181860 1.401787
endloop
endfacet
facet normal 0.000237 -0.096279 -0.995354
outer loop
vertex 4.250000 0.181860 1.401787
vertex 4.255853 0.181231 1.401849
vertex 4.258084 0.180491 1.401921
endloop
endfacet
facet normal 0.000111 -0.290712 -0.956811
outer loop
vertex 4.258084 0.180491 1.401921
vertex 4.261480 0.179479 1.402228
vertex 4.266667 0.176755 1.403055
endloop
endfacet
facet normal 0.000000 -0.290074 -0.957004
outer loop
vertex 4.266667 0.176755 1.403055
vertex 4.271213 0.173089 1.404167
vertex 4.274944 0.168622 1.405522
endloop
endfacet
facet normal 0.000000 -0.290432 -0.956896
outer loop
vertex 4.274944 0.168622 1.405522
vertex 4.277717 0.163525 1.407068
vertex 4.278270 0.161732 1.407612
endloop
endfacet
facet normal -0.001427 -0.472038 -0.881577
outer loop
vertex 4.278270 0.161732 1.407612
vertex 4.279424 0.158376 1.409405
vertex 4.280000 0.153212 1.412166
endloop
endfacet
facet normal 0.000000 -0.471988 -0.881605
outer loop
vertex 4.280000 0.153212 1.412166
vertex 4.279424 0.148048 1.414926
vertex 4.278184 0.144443 1.416853
endloop
endfacet
facet normal -0.000494 -0.635209 -0.772340
outer loop
vertex 4.278184 0.144443 1.416853
vertex 4.277717 0.143234 1.417845
vertex 4.274944 0.139171 1.421180
endloop
endfacet
facet normal -0.000136 -0.634367 -0.773032
outer loop
vertex 4.274944 0.139171 1.421180
vertex 4.271213 0.135609 1.424103
vertex 4.266667 0.132686 1.426502
endloop
endfacet
facet normal -0.000037 -0.634485 -0.772935
outer loop
vertex 4.266667 0.132686 1.426502
vertex 4.261480 0.130514 1.428284
vertex 4.256328 0.129289 1.429289
endloop
endfacet
facet normal 0.000768 -0.775973 -0.630766
outer loop
vertex 4.256328 0.129289 1.429289
vertex 4.255853 0.129192 1.429408
vertex 4.250000 0.128801 1.429884
endloop
endfacet
facet normal -0.000768 -0.776073 -0.630643
outer loop
vertex 4.250000 0.128801 1.429884
vertex 4.244147 0.129192 1.429408
vertex 4.243672 0.129289 1.429289
endloop
endfacet
facet normal -0.000074 -0.634466 -0.772951
outer loop
vertex 4.243672 0.129289 1.429289
vertex 4.233333 0.132686 1.426502
vertex 4.225056 0.139171 1.421180
endloop
endfacet
facet normal 0.547755 -0.303178 -0.779774
outer loop
vertex 4.225056 0.139171 1.421180
vertex 4.221816 0.144443 1.416853
vertex 4.220000 0.153212 1.412166
endloop
endfacet
facet normal 0.560456 -0.475930 -0.677775
outer loop
vertex 4.220000 0.153212 1.412166
vertex 4.221730 0.161732 1.407612
vertex 4.225056 0.168622 1.405522
endloop
endfacet
facet normal -0.000138 -0.290161 -0.956978
outer loop
vertex 4.225056 0.168622 1.405522
vertex 4.233333 0.176755 1.403055
vertex 4.241916 0.180491 1.401921
endloop
endfacet
facet normal 0.000000 -0.097408 -0.995245
outer loop
vertex 4.241916 0.180491 1.401921
vertex 4.250000 0.181860 1.401787
vertex 4.258084 0.180491 1.401921
endloop
endfacet
facet normal 0.000138 -0.290140 -0.956984
outer loop
vertex 4.258084 0.180491 1.401921
vertex 4.266667 0.176755 1.403055
vertex 4.274944 0.168622 1.405522
endloop
endfacet
facet normal -0.560457 -0.475931 -0.677774
outer loop
vertex 4.274944 0.168622 1.405522
vertex 4.278270 0.161732 1.407612
vertex 4.280000 0.153212 1.412166
endloop
endfacet
facet normal -0.547755 -0.303178 -0.779774
outer loop
vertex 4.280000 0.153212 1.412166
vertex 4.278184 0.144443 1.416853
vertex 4.274944 0.139171 1.421180
endloop
endfacet
facet normal 0.000055 -0.634466 -0.772951
outer loop
vertex 4.274944 0.139171 1.421180
vertex 4.266667 0.132686 1.426502
vertex 4.256328 0.129289 1.429289
endloop
endfacet
facet normal 0.000000 -0.773222 -0.634136
outer loop
vertex 4.256328 0.129289 1.429289
vertex 4.250000 0.128801 1.429884
vertex 4.243672 0.129289 1.429289
endloop
endfacet
facet normal 0.100017 -0.511752 -0.853292
outer loop
vertex 4.243672 0.129289 1.429289
vertex 4.225056 0.139171 1.421180
vertex 4.220000 0.153212 1.412166
endloop
endfacet
facet normal 0.105268 -0.422639 -0.900164
outer loop
vertex 4.220000 0.153212 1.412166
vertex 4.225056 0.168622 1.405522
vertex 4.241916 0.180491 1.401921
endloop
endfacet
facet normal 0.000000 -0.290323 -0.956929
outer loop
vertex 4.241916 0.180491 1.401921
vertex 4.258084 0.180491 1.401921
vertex 4.274944 0.168622 1.405522
endloop
endfacet
facet normal -0.261117 -0.453107 -0.852357
outer loop
vertex 4.274944 0.168622 1.405522
vertex 4.280000 0.153212 1.412166
vertex 4.274944 0.139171 1.421180
endloop
endfacet
facet normal 0.000000 -0.634330 -0.773062
outer loop
vertex 4.274944 0.139171 1.421180
vertex 4.256328 0.129289 1.429289
vertex 4.243672 0.129289 1.429289
endloop
endfacet
facet normal 0.165484 -0.460482 -0.872108
outer loop
vertex 4.243672 0.129289 1.429289
vertex 4.220000 0.153212 1.412166
vertex 4.241916 0.180491 1.401921
endloop
endfacet
facet normal -0.072239 -0.468211 -0.880659
outer loop
vertex 4.241916 0.180491 1.401921
vertex 4.274944 0.168622 1.405522
vertex 4.274944 0.139171 1.421180
endloop
endfacet
facet normal -0.078532 -0.472033 -0.878076
outer loop
vertex 4.241916 0.180491 1.401921
vertex 4.274944 0.139171 1.421180
vertex 4.243672 0.129289 1.429289
endloop
endfacet
endsolid inlet_n4
