solid inlet_s3
facet normal -0.000223 -0.289873 0.957065
outer loop
vertex 3.741916 0.180491 1.598078
vertex 3.738520 0.179479 1.597771
vertex 3.733333 0.176755 1.596945
endloop
endfacet
facet normal 0.000000 -0.290111 0.956993
outer loop
vertex 3.733333 0.176755 1.596945
vertex 3.728787 0.173089 1.595833
vertex 3.725056 0.168622 1.594478
endloop
endfacet
facet normal -0.000415 -0.290514 0.956871
outer loop
vertex 3.725056 0.168622 1.594478
vertex 3.722284 0.163525 1.592932
vertex 3.721730 0.161732 1.592388
endloop
endfacet
facet normal 0.001227 -0.471417 0.881910
outer loop
vertex 3.721730 0.161732 1.592388
vertex 3.720577 0.158376 1.590595
vertex 3.720000 0.153212 1.587834
endloop
endfacet
facet normal 0.000190 -0.471619 0.881802
outer loop
vertex 3.720000 0.153212 1.587834
vertex 3.720577 0.148048 1.585074
vertex 3.721816 0.144443 1.583147
endloop
endfacet
facet normal 0.000497 -0.633981 0.773348
outer loop
vertex 3.721816 0.144443 1.583147
vertex 3.722284 0.143234 1.582155
vertex 3.725056 0.139171 1.578820
endloop
endfacet
facet normal 0.000136 -0.634408 0.772998
outer loop
vertex 3.725056 0.139171 1.578820
vertex 3.728787 0.135609 1.575897
vertex 3.733333 0.132686 1.573498
endloop
endfacet
facet normal 0.000037 -0.634388 0.773014
outer loop
vertex 3.733333 0.132686 1.573498
vertex 3.738519 0.130514 1.571716
vertex 3.743672 0.129289 1.570711
endloop
endfacet
facet normal -0.000577 -0.775549 0.631287
outer loop
vertex 3.743672 0.129289 1.570711
vertex 3.744147 0.129192 1.570592
vertex 3.750000 0.128801 1.570115
endloop
endfacet
facet normal 0.001287 -0.779977 0.625807
outer loop
vertex 3.750000 0.128801 1.570115
vertex 3.755853 0.129192 1.570591
vertex 3.756328 0.129289 1.570711
endloop
endfacet
facet normal 0.000000 -0.634422 0.772987
outer loop
vertex 3.756328 0.129289 1.570711
vertex 3.761480 0.130514 1.571716
vertex 3.766667 0.132686 1.573498
endloop
endfacet
facet normal -0.000136 -0.634408 0.772998
outer loop
vertex 3.766667 0.132686 1.573498
vertex 3.771213 0.135609 1.575897
vertex 3.774944 0.139171 1.578820
endloop
endfacet
facet normal -0.000745 -0.634278 0.773104
outer loop
vertex 3.774944 0.139171 1.578820
vertex 3.777716 0.143234 1.582155
vertex 3.778184 0.144443 1.583147
endloop
endfacet
facet normal 0.000000 -0.471797 0.881707
outer loop
vertex 3.778184 0.144443 1.583147
vertex 3.779424 0.148048 1.585074
vertex 3.780000 0.153212 1.587834
endloop
endfacet
facet normal -0.001428 -0.471466 0.881883
outer loop
vertex 3.780000 0.153212 1.587834
vertex 3.779424 0.158376 1.590595
vertex 3.778270 0.161732 1.592388
endloop
endfacet
facet normal 0.000000 -0.290326 0.956928
outer loop
vertex 3.778270 0.161732 1.592388
vertex 3.777716 0.163525 1.592932
vertex 3.774944 0.168622 1.594478
endloop
endfacet
facet normal 0.000000 -0.290111 0.956993
outer loop
vertex 3.774944 0.168622 1.594478
vertex 3.771213 0.173089 1.595833
vertex 3.766667 0.176755 1.596945
endloop
endfacet
facet normal 0.000167 -0.289924 0.957050
outer loop
vertex 3.766667 0.176755 1.596945
vertex 3.761480 0.179479 1.597771
vertex 3.758084 0.180491 1.598078
endloop
endfacet
facet normal 0.000079 -0.098121 0.995175
outer loop
vertex 3.758084 0.180491 1.598078
vertex 3.755853 0.181231 1.598151
vertex 3.750000 0.181860 1.598213
endloop
endfacet
facet normal -0.000079 -0.098119 0.995175
outer loop
vertex 3.750000 0.181860 1.598213
vertex 3.744147 0.181231 1.598151
vertex 3.741916 0.180491 1.598078
endloop
endfacet
facet normal 0.000046 -0.290327 0.956927
outer loop
vertex 3.741916 0.180491 1.598078
vertex 3.733333 0.176755 1.596945
vertex 3.725056 0.168622 1.594478
endloop
endfacet
facet normal 0.560363 -0.476005 0.677800
outer loop
vertex 3.725056 0.168622 1.594478
vertex 3.721730 0.161732 1.592388
vertex 3.720000 0.153212 1.587834
endloop
endfacet
facet normal 0.547743 -0.303325 0.779725
outer loop
vertex 3.720000 0.153212 1.587834
vertex 3.721816 0.144443 1.583147
vertex 3.725056 0.139171 1.578820
endloop
endfacet
facet normal -0.000055 -0.634433 0.772978
outer loop
vertex 3.725056 0.139171 1.578820
vertex 3.733333 0.132686 1.573498
vertex 3.743672 0.129289 1.570711
endloop
endfacet
facet normal 0.000000 -0.773759 0.633480
outer loop
vertex 3.743672 0.129289 1.570711
vertex 3.750000 0.128801 1.570115
vertex 3.756328 0.129289 1.570711
endloop
endfacet
facet normal 0.000074 -0.634433 0.772978
outer loop
vertex 3.756328 0.129289 1.570711
vertex 3.766667 0.132686 1.573498
vertex 3.774944 0.139171 1.578820
endloop
endfacet
facet normal -0.547743 -0.303325 0.779725
outer loop
vertex 3.774944 0.139171 1.578820
vertex 3.778184 0.144443 1.583147
vertex 3.780000 0.153212 1.587834
endloop
endfacet
facet normal -0.560343 -0.476065 0.677774
outer loop
vertex 3.780000 0.153212 1.587834
vertex 3.778270 0.161732 1.592388
vertex 3.774944 0.168622 1.594478
endloop
endfacet
facet normal -0.000046 -0.290327 0.956927
outer loop
vertex 3.774944 0.168622 1.594478
vertex 3.766667 0.176755 1.596945
vertex 3.758084 0.180491 1.598078
endloop
endfacet
facet normal 0.000000 -0.098098 0.995177
outer loop
vertex 3.758084 0.180491 1.598078
vertex 3.750000 0.181860 1.598213
vertex 3.741916 0.180491 1.598078
endloop
endfacet
facet normal 0.105313 -0.422662 0.900148
outer loop
vertex 3.741916 0.180491 1.598078
vertex 3.725056 0.168622 1.594478
vertex 3.720000 0.153212 1.587834
endloop
endfacet
facet normal 0.100006 -0.511748 0.853295
outer loop
vertex 3.720000 0.153212 1.587834
vertex 3.725056 0.139171 1.578820
vertex 3.743672 0.129289 1.570711
endloop
endfacet
facet normal 0.000000 -0.634346 0.773049
outer loop
vertex 3.743672 0.129289 1.570711
vertex 3.756328 0.129289 1.570711
vertex 3.774944 0.139171 1.578820
endloop
endfacet
facet normal -0.261136 -0.453138 0.852334
outer loop
vertex 3.774944 0.139171 1.578820
vertex 3.780000 0.153212 1.587834
vertex 3.774944 0.168622 1.594478
endloop
endfacet
facet normal 0.000000 -0.290255 0.956949
outer loop
vertex 3.774944 0.168622 1.594478
vertex 3.758084 0.180491 1.598078
vertex 3.741916 0.180491 1.598078
endloop
endfacet
facet normal 0.165503 -0.460477 0.872107
outer loop
vertex 3.741916 0.180491 1.598078
vertex 3.720000 0.153212 1.587834
vertex 3.743672 0.129289 1.570711
endloop
endfacet
facet normal -0.080347 -0.467922 0.880110
outer loop
vertex 3.743672 0.129289 1.570711
vertex 3.774944 0.139171 1.578820
vertex 3.774944 0.168622 1.594478
endloop
endfacet
facet normal -0.073897 -0.472057 0.878466
outer loop
vertex 3.741916 0.180491 1.598078
vertex 3.743672 0.129289 1.570711
vertex 3.774944 0.168622 1.594478
endloop
endfacet
endsolid inlet_s3
