solid inlet_s4
facet normal 0.956780 0.254474 0.140763
outer loop
vertex 4.220576 0.148048 1.585074
vertex 4.221816 0.144443 1.583147
vertex 4.222283 0.143234 1.582155
endloop
endfacet
facet normal -0.000409 -0.634855 0.772631
outer loop
vertex 4.222283 0.143234 1.582155
vertex 4.225056 0.139171 1.578820
vertex 4.228787 0.135609 1.575897
endloop
endfacet
facet normal -0.000272 -0.634767 0.772704
outer loop
vertex 4.228787 0.135609 1.575897
vertex 4.233333 0.132686 1.573498
vertex 4.238520 0.130514 1.571716
endloop
endfacet
facet normal 0.292154 0.821115 0.490322
outer loop
vertex 4.238520 0.130514 1.571716
vertex 4.243671 0.129289 1.570711
vertex 4.244147 0.129192 1.570591
endloop
endfacet
facet normal 0.000000 -0.772753 0.634706
outer loop
vertex 4.244147 0.129192 1.570591
vertex 4.250000 0.128801 1.570115
vertex 4.255853 0.129192 1.570591
endloop
endfacet
facet normal -0.291705 0.821706 0.489600
outer loop
vertex 4.255853 0.129192 1.570591
vertex 4.256329 0.129289 1.570711
vertex 4.261480 0.130514 1.571716
endloop
endfacet
facet normal 0.000272 -0.634767 0.772704
outer loop
vertex 4.261480 0.130514 1.571716
vertex 4.266667 0.132686 1.573498
vertex 4.271213 0.135609 1.575897
endloop
endfacet
facet normal 0.000409 -0.634855 0.772631
outer loop
vertex 4.271213 0.135609 1.575897
vertex 4.274944 0.139171 1.578820
vertex 4.277717 0.143234 1.582155
endloop
endfacet
facet normal -0.956809 0.254387 0.140726
outer loop
vertex 4.277717 0.143234 1.582155
vertex 4.278184 0.144443 1.583147
vertex 4.279424 0.148048 1.585074
endloop
endfacet
facet normal 0.000000 -0.471572 0.881827
outer loop
vertex 4.279424 0.148048 1.585074
vertex 4.280000 0.153212 1.587834
vertex 4.279424 0.158376 1.590594
endloop
endfacet
facet normal 0.000000 -0.290620 0.956839
outer loop
vertex 4.278270 0.161732 1.592388
vertex 4.277717 0.163525 1.592932
vertex 4.274944 0.168622 1.594478
endloop
endfacet
facet normal 0.000482 -0.471297 0.881974
outer loop
vertex 4.279424 0.148048 1.585074
vertex 4.279424 0.158376 1.590594
vertex 4.278270 0.161732 1.592388
endloop
endfacet
facet normal -0.364737 -0.384552 0.847990
outer loop
vertex 4.271213 0.135609 1.575897
vertex 4.277717 0.143234 1.582155
vertex 4.279424 0.148048 1.585074
endloop
endfacet
facet normal -0.010239 -0.622618 0.782459
outer loop
vertex 4.255853 0.129192 1.570591
vertex 4.261480 0.130514 1.571716
vertex 4.271213 0.135609 1.575897
endloop
endfacet
facet normal 0.000000 -0.648068 0.761583
outer loop
vertex 4.238520 0.130514 1.571716
vertex 4.244147 0.129192 1.570591
vertex 4.255853 0.129192 1.570591
endloop
endfacet
facet normal -0.000105 -0.634422 0.772987
outer loop
vertex 4.222283 0.143234 1.582155
vertex 4.228787 0.135609 1.575897
vertex 4.238520 0.130514 1.571716
endloop
endfacet
facet normal 0.255356 -0.433452 0.864241
outer loop
vertex 4.220000 0.153212 1.587834
vertex 4.220576 0.148048 1.585074
vertex 4.222283 0.143234 1.582155
endloop
endfacet
facet normal -0.000815 -0.471721 0.881747
outer loop
vertex 4.221730 0.161732 1.592388
vertex 4.220576 0.158376 1.590594
vertex 4.220000 0.153212 1.587834
endloop
endfacet
facet normal -0.000413 -0.290432 0.956896
outer loop
vertex 4.225056 0.168622 1.594478
vertex 4.222283 0.163525 1.592932
vertex 4.221730 0.161732 1.592388
endloop
endfacet
facet normal 0.000000 -0.290074 0.957004
outer loop
vertex 4.233333 0.176755 1.596945
vertex 4.228787 0.173089 1.595833
vertex 4.225056 0.168622 1.594478
endloop
endfacet
facet normal -0.000223 -0.289896 0.957058
outer loop
vertex 4.241916 0.180491 1.598078
vertex 4.238520 0.179479 1.597771
vertex 4.233333 0.176755 1.596945
endloop
endfacet
facet normal -0.000079 -0.098160 0.995171
outer loop
vertex 4.250000 0.181860 1.598213
vertex 4.244147 0.181231 1.598151
vertex 4.241916 0.180491 1.598078
endloop
endfacet
facet normal 0.000079 -0.098156 0.995171
outer loop
vertex 4.258084 0.180491 1.598078
vertex 4.255853 0.181231 1.598151
vertex 4.250000 0.181860 1.598213
endloop
endfacet
facet normal 0.000167 -0.289947 0.957043
outer loop
vertex 4.266667 0.176755 1.596945
vertex 4.261480 0.179479 1.597771
vertex 4.258084 0.180491 1.598078
endloop
endfacet
facet normal 0.000000 -0.290074 0.957004
outer loop
vertex 4.274944 0.168622 1.594478
vertex 4.271213 0.173089 1.595833
vertex 4.266667 0.176755 1.596945
endloop
endfacet
facet normal -0.448153 -0.450489 0.772152
outer loop
vertex 4.279424 0.148048 1.585074
vertex 4.278270 0.161732 1.592388
vertex 4.274944 0.168622 1.594478
endloop
endfacet
facet normal -0.041992 -0.575045 0.817043
outer loop
vertex 4.255853 0.129192 1.570591
vertex 4.271213 0.135609 1.575897
vertex 4.279424 0.148048 1.585074
endloop
endfacet
facet normal 0.001996 -0.632877 0.774250
outer loop
vertex 4.222283 0.143234 1.582155
vertex 4.238520 0.130514 1.571716
vertex 4.255853 0.129192 1.570591
endloop
endfacet
facet normal 0.070209 -0.481269 0.873757
outer loop
vertex 4.221730 0.161732 1.592388
vertex 4.220000 0.153212 1.587834
vertex 4.222283 0.143234 1.582155
endloop
endfacet
facet normal 0.000000 -0.290221 0.956960
outer loop
vertex 4.233333 0.176755 1.596945
vertex 4.225056 0.168622 1.594478
vertex 4.221730 0.161732 1.592388
endloop
endfacet
facet normal 0.051981 -0.397304 0.916214
outer loop
vertex 4.250000 0.181860 1.598213
vertex 4.241916 0.180491 1.598078
vertex 4.233333 0.176755 1.596945
endloop
endfacet
facet normal -0.052004 -0.397313 0.916208
outer loop
vertex 4.266667 0.176755 1.596945
vertex 4.258084 0.180491 1.598078
vertex 4.250000 0.181860 1.598213
endloop
endfacet
facet normal -0.169483 -0.440023 0.881847
outer loop
vertex 4.279424 0.148048 1.585074
vertex 4.274944 0.168622 1.594478
vertex 4.266667 0.176755 1.596945
endloop
endfacet
facet normal 0.011963 -0.618461 0.785725
outer loop
vertex 4.222283 0.143234 1.582155
vertex 4.255853 0.129192 1.570591
vertex 4.279424 0.148048 1.585074
endloop
endfacet
facet normal 0.263900 -0.460854 0.847331
outer loop
vertex 4.233333 0.176755 1.596945
vertex 4.221730 0.161732 1.592388
vertex 4.222283 0.143234 1.582155
endloop
endfacet
facet normal 0.000000 -0.241038 0.970516
outer loop
vertex 4.266667 0.176755 1.596945
vertex 4.250000 0.181860 1.598213
vertex 4.233333 0.176755 1.596945
endloop
endfacet
facet normal -0.014435 -0.387572 0.921726
outer loop
vertex 4.222283 0.143234 1.582155
vertex 4.279424 0.148048 1.585074
vertex 4.266667 0.176755 1.596945
endloop
endfacet
facet normal 0.000000 -0.403670 0.914905
outer loop
vertex 4.222283 0.143234 1.582155
vertex 4.266667 0.176755 1.596945
vertex 4.233333 0.176755 1.596945
endloop
endfacet
endsolid inlet_s4
