solid Exported from Blender-2.91.2
facet normal -0.000000 0.995185 -0.098017
outer loop
vertex 0.000000 0.300000 1.500000
vertex 5.500000 0.300000 1.500000
vertex 5.500000 0.298079 1.480491
endloop
endfacet
facet normal -0.000000 0.995185 -0.098017
outer loop
vertex 0.000000 0.300000 1.500000
vertex 5.500000 0.298079 1.480491
vertex 0.000000 0.298079 1.480491
endloop
endfacet
facet normal -0.000000 0.956940 -0.290286
outer loop
vertex 0.000000 0.298079 1.480491
vertex 5.500000 0.298079 1.480491
vertex 5.500000 0.292388 1.461732
endloop
endfacet
facet normal -0.000000 0.956940 -0.290286
outer loop
vertex 0.000000 0.298079 1.480491
vertex 5.500000 0.292388 1.461732
vertex 0.000000 0.292388 1.461732
endloop
endfacet
facet normal -0.000000 0.881922 -0.471396
outer loop
vertex 0.000000 0.292388 1.461732
vertex 5.500000 0.292388 1.461732
vertex 5.500000 0.283147 1.444443
endloop
endfacet
facet normal -0.000000 0.881922 -0.471396
outer loop
vertex 0.000000 0.292388 1.461732
vertex 5.500000 0.283147 1.444443
vertex 0.000000 0.283147 1.444443
endloop
endfacet
facet normal -0.000000 0.773010 -0.634394
outer loop
vertex 0.000000 0.283147 1.444443
vertex 5.500000 0.283147 1.444443
vertex 5.500000 0.270711 1.429289
endloop
endfacet
facet normal -0.000000 0.773010 -0.634394
outer loop
vertex 0.000000 0.283147 1.444443
vertex 5.500000 0.270711 1.429289
vertex 0.000000 0.270711 1.429289
endloop
endfacet
facet normal 0.000000 0.634393 -0.773011
outer loop
vertex 0.000000 0.270711 1.429289
vertex 5.500000 0.270711 1.429289
vertex 5.500000 0.255557 1.416853
endloop
endfacet
facet normal -0.000000 0.634394 -0.773010
outer loop
vertex 0.000000 0.270711 1.429289
vertex 5.500000 0.255557 1.416853
vertex 0.000000 0.255557 1.416853
endloop
endfacet
facet normal -0.000000 0.471396 -0.881921
outer loop
vertex 0.000000 0.255557 1.416853
vertex 5.500000 0.255557 1.416853
vertex 5.500000 0.238268 1.407612
endloop
endfacet
facet normal 0.000000 0.471396 -0.881921
outer loop
vertex 0.000000 0.255557 1.416853
vertex 5.500000 0.238268 1.407612
vertex 0.000000 0.238268 1.407612
endloop
endfacet
facet normal -0.000000 0.290284 -0.956940
outer loop
vertex 0.000000 0.238268 1.407612
vertex 5.500000 0.238268 1.407612
vertex 5.500000 0.219509 1.401921
endloop
endfacet
facet normal -0.000000 0.290285 -0.956940
outer loop
vertex 0.000000 0.238268 1.407612
vertex 5.500000 0.219509 1.401921
vertex 0.000000 0.219509 1.401922
endloop
endfacet
facet normal 0.000000 0.098020 -0.995184
outer loop
vertex 0.000000 0.219509 1.401922
vertex 5.500000 0.219509 1.401921
vertex 5.500000 0.200000 1.400000
endloop
endfacet
facet normal -0.000000 0.098020 -0.995184
outer loop
vertex 0.000000 0.219509 1.401922
vertex 5.500000 0.200000 1.400000
vertex 0.000000 0.200000 1.400000
endloop
endfacet
facet normal 0.000000 -0.098020 -0.995184
outer loop
vertex 0.000000 0.200000 1.400000
vertex 5.500000 0.200000 1.400000
vertex 5.500000 0.180491 1.401921
endloop
endfacet
facet normal -0.000000 -0.098020 -0.995184
outer loop
vertex 0.000000 0.200000 1.400000
vertex 5.500000 0.180491 1.401921
vertex 0.000000 0.180491 1.401922
endloop
endfacet
facet normal -0.000000 -0.290285 -0.956940
outer loop
vertex 0.000000 0.180491 1.401922
vertex 5.500000 0.180491 1.401921
vertex 5.500000 0.161732 1.407612
endloop
endfacet
facet normal -0.000000 -0.290285 -0.956940
outer loop
vertex 0.000000 0.180491 1.401922
vertex 5.500000 0.161732 1.407612
vertex 0.000000 0.161732 1.407612
endloop
endfacet
facet normal -0.000000 -0.471395 -0.881922
outer loop
vertex 0.000000 0.161732 1.407612
vertex 5.500000 0.161732 1.407612
vertex 5.500000 0.144443 1.416853
endloop
endfacet
facet normal 0.000000 -0.471396 -0.881921
outer loop
vertex 0.000000 0.161732 1.407612
vertex 5.500000 0.144443 1.416853
vertex 0.000000 0.144443 1.416853
endloop
endfacet
facet normal 0.000000 -0.634394 -0.773010
outer loop
vertex 0.000000 0.144443 1.416853
vertex 5.500000 0.144443 1.416853
vertex 5.500000 0.129289 1.429289
endloop
endfacet
facet normal -0.000000 -0.634393 -0.773011
outer loop
vertex 0.000000 0.144443 1.416853
vertex 5.500000 0.129289 1.429289
vertex 0.000000 0.129289 1.429289
endloop
endfacet
facet normal 0.000000 -0.773010 -0.634393
outer loop
vertex 0.000000 0.129289 1.429289
vertex 5.500000 0.129289 1.429289
vertex 5.500000 0.116853 1.444443
endloop
endfacet
facet normal -0.000000 -0.773010 -0.634394
outer loop
vertex 0.000000 0.129289 1.429289
vertex 5.500000 0.116853 1.444443
vertex 0.000000 0.116853 1.444443
endloop
endfacet
facet normal -0.000000 -0.881921 -0.471397
outer loop
vertex 0.000000 0.116853 1.444443
vertex 5.500000 0.116853 1.444443
vertex 5.500000 0.107612 1.461732
endloop
endfacet
facet normal -0.000000 -0.881921 -0.471397
outer loop
vertex 0.000000 0.116853 1.444443
vertex 5.500000 0.107612 1.461732
vertex 0.000000 0.107612 1.461732
endloop
endfacet
facet normal 0.000000 -0.956941 -0.290283
outer loop
vertex 0.000000 0.107612 1.461732
vertex 5.500000 0.107612 1.461732
vertex 5.500000 0.101921 1.480491
endloop
endfacet
facet normal -0.000000 -0.956941 -0.290284
outer loop
vertex 0.000000 0.107612 1.461732
vertex 5.500000 0.101921 1.480491
vertex 0.000000 0.101921 1.480491
endloop
endfacet
facet normal -0.000000 -0.995185 -0.098018
outer loop
vertex 0.000000 0.101921 1.480491
vertex 5.500000 0.101921 1.480491
vertex 5.500000 0.100000 1.500000
endloop
endfacet
facet normal 0.000000 -0.995185 -0.098017
outer loop
vertex 0.000000 0.101921 1.480491
vertex 5.500000 0.100000 1.500000
vertex 0.000000 0.100000 1.500000
endloop
endfacet
facet normal 0.000000 -0.995185 0.098017
outer loop
vertex 0.000000 0.100000 1.500000
vertex 5.500000 0.100000 1.500000
vertex 5.500000 0.101921 1.519509
endloop
endfacet
facet normal 0.000000 -0.995185 0.098017
outer loop
vertex 0.000000 0.100000 1.500000
vertex 5.500000 0.101921 1.519509
vertex 0.000000 0.101921 1.519509
endloop
endfacet
facet normal 0.000000 -0.956941 0.290284
outer loop
vertex 0.000000 0.101921 1.519509
vertex 5.500000 0.101921 1.519509
vertex 5.500000 0.107612 1.538268
endloop
endfacet
facet normal 0.000000 -0.956940 0.290285
outer loop
vertex 0.000000 0.101921 1.519509
vertex 5.500000 0.107612 1.538268
vertex 0.000000 0.107612 1.538269
endloop
endfacet
facet normal 0.000000 -0.881921 0.471397
outer loop
vertex 0.000000 0.107612 1.538269
vertex 5.500000 0.107612 1.538268
vertex 5.500000 0.116853 1.555557
endloop
endfacet
facet normal 0.000000 -0.881921 0.471398
outer loop
vertex 0.000000 0.107612 1.538269
vertex 5.500000 0.116853 1.555557
vertex 0.000000 0.116853 1.555557
endloop
endfacet
facet normal 0.000000 -0.773010 0.634393
outer loop
vertex 0.000000 0.116853 1.555557
vertex 5.500000 0.116853 1.555557
vertex 5.500000 0.129289 1.570711
endloop
endfacet
facet normal 0.000000 -0.773010 0.634393
outer loop
vertex 0.000000 0.116853 1.555557
vertex 5.500000 0.129289 1.570711
vertex 0.000000 0.129289 1.570711
endloop
endfacet
facet normal 0.000000 -0.634392 0.773011
outer loop
vertex 0.000000 0.129289 1.570711
vertex 5.500000 0.129289 1.570711
vertex 5.500000 0.144443 1.583147
endloop
endfacet
facet normal 0.000000 -0.634393 0.773011
outer loop
vertex 0.000000 0.129289 1.570711
vertex 5.500000 0.144443 1.583147
vertex 0.000000 0.144443 1.583147
endloop
endfacet
facet normal 0.000000 -0.471396 0.881921
outer loop
vertex 0.000000 0.144443 1.583147
vertex 5.500000 0.144443 1.583147
vertex 5.500000 0.161732 1.592388
endloop
endfacet
facet normal 0.000000 -0.471396 0.881922
outer loop
vertex 0.000000 0.144443 1.583147
vertex 5.500000 0.161732 1.592388
vertex 0.000000 0.161732 1.592388
endloop
endfacet
facet normal 0.000000 -0.290278 0.956942
outer loop
vertex 0.000000 0.161732 1.592388
vertex 5.500000 0.161732 1.592388
vertex 5.500000 0.180491 1.598078
endloop
endfacet
facet normal 0.000000 -0.290279 0.956942
outer loop
vertex 0.000000 0.161732 1.592388
vertex 5.500000 0.180491 1.598078
vertex 0.000000 0.180491 1.598079
endloop
endfacet
facet normal 0.000000 -0.098020 0.995184
outer loop
vertex 0.000000 0.180491 1.598079
vertex 5.500000 0.180491 1.598078
vertex 5.500000 0.200000 1.600000
endloop
endfacet
facet normal 0.000000 -0.098020 0.995184
outer loop
vertex 0.000000 0.180491 1.598079
vertex 5.500000 0.200000 1.600000
vertex 0.000000 0.200000 1.600000
endloop
endfacet
facet normal 0.000000 0.098020 0.995184
outer loop
vertex 0.000000 0.200000 1.600000
vertex 5.500000 0.200000 1.600000
vertex 5.500000 0.219509 1.598078
endloop
endfacet
facet normal 0.000000 0.098020 0.995184
outer loop
vertex 0.000000 0.200000 1.600000
vertex 5.500000 0.219509 1.598078
vertex 0.000000 0.219509 1.598079
endloop
endfacet
facet normal 0.000000 0.290285 0.956940
outer loop
vertex 0.000000 0.219509 1.598079
vertex 5.500000 0.219509 1.598078
vertex 5.500000 0.238268 1.592388
endloop
endfacet
facet normal 0.000000 0.290285 0.956940
outer loop
vertex 0.000000 0.219509 1.598079
vertex 5.500000 0.238268 1.592388
vertex 0.000000 0.238268 1.592388
endloop
endfacet
facet normal 0.000000 0.471396 0.881921
outer loop
vertex 0.000000 0.238268 1.592388
vertex 5.500000 0.238268 1.592388
vertex 5.500000 0.255557 1.583147
endloop
endfacet
facet normal 0.000000 0.471396 0.881921
outer loop
vertex 0.000000 0.238268 1.592388
vertex 5.500000 0.255557 1.583147
vertex 0.000000 0.255557 1.583147
endloop
endfacet
facet normal 0.000000 0.634397 0.773007
outer loop
vertex 0.000000 0.255557 1.583147
vertex 5.500000 0.255557 1.583147
vertex 5.500000 0.270711 1.570710
endloop
endfacet
facet normal 0.000000 0.634396 0.773008
outer loop
vertex 0.000000 0.255557 1.583147
vertex 5.500000 0.270711 1.570710
vertex 0.000000 0.270711 1.570711
endloop
endfacet
facet normal 0.000000 0.773011 0.634393
outer loop
vertex 0.000000 0.270711 1.570711
vertex 5.500000 0.270711 1.570710
vertex 5.500000 0.283147 1.555557
endloop
endfacet
facet normal 0.000000 0.773011 0.634393
outer loop
vertex 0.000000 0.270711 1.570711
vertex 5.500000 0.283147 1.555557
vertex 0.000000 0.283147 1.555557
endloop
endfacet
facet normal 0.000000 0.881921 0.471398
outer loop
vertex 0.000000 0.283147 1.555557
vertex 5.500000 0.283147 1.555557
vertex 5.500000 0.292388 1.538268
endloop
endfacet
facet normal 0.000000 0.881922 0.471396
outer loop
vertex 0.000000 0.283147 1.555557
vertex 5.500000 0.292388 1.538268
vertex 0.000000 0.292388 1.538268
endloop
endfacet
facet normal 1.000000 0.000000 0.000000
outer loop
vertex 5.500000 0.292388 1.461732
vertex 5.500000 0.298079 1.480491
vertex 5.500000 0.300000 1.500000
endloop
endfacet
facet normal 1.000000 0.000000 0.000000
outer loop
vertex 5.500000 0.300000 1.500000
vertex 5.500000 0.298079 1.519509
vertex 5.500000 0.292388 1.538268
endloop
endfacet
facet normal 1.000000 0.000000 0.000000
outer loop
vertex 5.500000 0.292388 1.538268
vertex 5.500000 0.283147 1.555557
vertex 5.500000 0.270711 1.570710
endloop
endfacet
facet normal 1.000000 0.000000 0.000000
outer loop
vertex 5.500000 0.270711 1.570710
vertex 5.500000 0.255557 1.583147
vertex 5.500000 0.238268 1.592388
endloop
endfacet
facet normal 1.000000 0.000000 0.000000
outer loop
vertex 5.500000 0.238268 1.592388
vertex 5.500000 0.219509 1.598078
vertex 5.500000 0.200000 1.600000
endloop
endfacet
facet normal 1.000000 0.000000 0.000000
outer loop
vertex 5.500000 0.200000 1.600000
vertex 5.500000 0.180491 1.598078
vertex 5.500000 0.161732 1.592388
endloop
endfacet
facet normal 1.000000 0.000000 0.000000
outer loop
vertex 5.500000 0.161732 1.592388
vertex 5.500000 0.144443 1.583147
vertex 5.500000 0.129289 1.570711
endloop
endfacet
facet normal 1.000000 0.000000 0.000000
outer loop
vertex 5.500000 0.129289 1.570711
vertex 5.500000 0.116853 1.555557
vertex 5.500000 0.107612 1.538268
endloop
endfacet
facet normal 1.000000 0.000000 0.000000
outer loop
vertex 5.500000 0.107612 1.538268
vertex 5.500000 0.101921 1.519509
vertex 5.500000 0.100000 1.500000
endloop
endfacet
facet normal 1.000000 0.000000 0.000000
outer loop
vertex 5.500000 0.100000 1.500000
vertex 5.500000 0.101921 1.480491
vertex 5.500000 0.107612 1.461732
endloop
endfacet
facet normal 1.000000 0.000000 0.000000
outer loop
vertex 5.500000 0.107612 1.461732
vertex 5.500000 0.116853 1.444443
vertex 5.500000 0.129289 1.429289
endloop
endfacet
facet normal 1.000000 0.000000 0.000000
outer loop
vertex 5.500000 0.129289 1.429289
vertex 5.500000 0.144443 1.416853
vertex 5.500000 0.161732 1.407612
endloop
endfacet
facet normal 1.000000 0.000000 0.000000
outer loop
vertex 5.500000 0.161732 1.407612
vertex 5.500000 0.180491 1.401921
vertex 5.500000 0.200000 1.400000
endloop
endfacet
facet normal 1.000000 0.000000 0.000000
outer loop
vertex 5.500000 0.200000 1.400000
vertex 5.500000 0.219509 1.401921
vertex 5.500000 0.238268 1.407612
endloop
endfacet
facet normal 1.000000 0.000000 0.000000
outer loop
vertex 5.500000 0.238268 1.407612
vertex 5.500000 0.255557 1.416853
vertex 5.500000 0.270711 1.429289
endloop
endfacet
facet normal 1.000000 0.000000 0.000000
outer loop
vertex 5.500000 0.270711 1.429289
vertex 5.500000 0.283147 1.444443
vertex 5.500000 0.292388 1.461732
endloop
endfacet
facet normal 1.000000 0.000000 0.000000
outer loop
vertex 5.500000 0.292388 1.461732
vertex 5.500000 0.300000 1.500000
vertex 5.500000 0.292388 1.538268
endloop
endfacet
facet normal 1.000000 0.000000 0.000000
outer loop
vertex 5.500000 0.292388 1.538268
vertex 5.500000 0.270711 1.570710
vertex 5.500000 0.238268 1.592388
endloop
endfacet
facet normal 1.000000 0.000000 0.000000
outer loop
vertex 5.500000 0.238268 1.592388
vertex 5.500000 0.200000 1.600000
vertex 5.500000 0.161732 1.592388
endloop
endfacet
facet normal 1.000000 0.000000 0.000000
outer loop
vertex 5.500000 0.161732 1.592388
vertex 5.500000 0.129289 1.570711
vertex 5.500000 0.107612 1.538268
endloop
endfacet
facet normal 1.000000 0.000000 0.000000
outer loop
vertex 5.500000 0.107612 1.538268
vertex 5.500000 0.100000 1.500000
vertex 5.500000 0.107612 1.461732
endloop
endfacet
facet normal 1.000000 0.000000 0.000000
outer loop
vertex 5.500000 0.107612 1.461732
vertex 5.500000 0.129289 1.429289
vertex 5.500000 0.161732 1.407612
endloop
endfacet
facet normal 1.000000 0.000000 0.000000
outer loop
vertex 5.500000 0.161732 1.407612
vertex 5.500000 0.200000 1.400000
vertex 5.500000 0.238268 1.407612
endloop
endfacet
facet normal 1.000000 0.000000 0.000000
outer loop
vertex 5.500000 0.238268 1.407612
vertex 5.500000 0.270711 1.429289
vertex 5.500000 0.292388 1.461732
endloop
endfacet
facet normal 1.000000 0.000000 0.000000
outer loop
vertex 5.500000 0.292388 1.461732
vertex 5.500000 0.292388 1.538268
vertex 5.500000 0.238268 1.592388
endloop
endfacet
facet normal 1.000000 0.000000 0.000000
outer loop
vertex 5.500000 0.238268 1.592388
vertex 5.500000 0.161732 1.592388
vertex 5.500000 0.107612 1.538268
endloop
endfacet
facet normal 1.000000 0.000000 0.000000
outer loop
vertex 5.500000 0.107612 1.538268
vertex 5.500000 0.107612 1.461732
vertex 5.500000 0.161732 1.407612
endloop
endfacet
facet normal 1.000000 0.000000 0.000000
outer loop
vertex 5.500000 0.161732 1.407612
vertex 5.500000 0.238268 1.407612
vertex 5.500000 0.292388 1.461732
endloop
endfacet
facet normal 1.000000 0.000000 0.000000
outer loop
vertex 5.500000 0.292388 1.461732
vertex 5.500000 0.238268 1.592388
vertex 5.500000 0.107612 1.538268
endloop
endfacet
facet normal 1.000000 0.000000 0.000000
outer loop
vertex 5.500000 0.107612 1.538268
vertex 5.500000 0.161732 1.407612
vertex 5.500000 0.292388 1.461732
endloop
endfacet
facet normal 0.000000 0.956941 0.290284
outer loop
vertex 0.000000 0.292388 1.538268
vertex 5.500000 0.292388 1.538268
vertex 5.500000 0.298079 1.519509
endloop
endfacet
facet normal 0.000000 0.956942 0.290280
outer loop
vertex 0.000000 0.292388 1.538268
vertex 5.500000 0.298079 1.519509
vertex 0.000000 0.298079 1.519509
endloop
endfacet
facet normal 0.000000 0.995185 0.098019
outer loop
vertex 0.000000 0.298079 1.519509
vertex 5.500000 0.298079 1.519509
vertex 5.500000 0.300000 1.500000
endloop
endfacet
facet normal 0.000000 0.995185 0.098016
outer loop
vertex 0.000000 0.298079 1.519509
vertex 5.500000 0.300000 1.500000
vertex 0.000000 0.300000 1.500000
endloop
endfacet
facet normal -1.000000 0.000000 0.000000
outer loop
vertex 0.000000 0.298079 1.519509
vertex 0.000000 0.300000 1.500000
vertex 0.000000 0.298079 1.480491
endloop
endfacet
facet normal -1.000000 0.000000 0.000000
outer loop
vertex 0.000000 0.298079 1.480491
vertex 0.000000 0.292388 1.461732
vertex 0.000000 0.283147 1.444443
endloop
endfacet
facet normal -1.000000 0.000000 0.000000
outer loop
vertex 0.000000 0.283147 1.444443
vertex 0.000000 0.270711 1.429289
vertex 0.000000 0.255557 1.416853
endloop
endfacet
facet normal -1.000000 0.000000 0.000000
outer loop
vertex 0.000000 0.255557 1.416853
vertex 0.000000 0.238268 1.407612
vertex 0.000000 0.219509 1.401922
endloop
endfacet
facet normal -1.000000 0.000000 0.000000
outer loop
vertex 0.000000 0.219509 1.401922
vertex 0.000000 0.200000 1.400000
vertex 0.000000 0.180491 1.401922
endloop
endfacet
facet normal -1.000000 0.000000 0.000000
outer loop
vertex 0.000000 0.180491 1.401922
vertex 0.000000 0.161732 1.407612
vertex 0.000000 0.144443 1.416853
endloop
endfacet
facet normal -1.000000 0.000000 0.000000
outer loop
vertex 0.000000 0.144443 1.416853
vertex 0.000000 0.129289 1.429289
vertex 0.000000 0.116853 1.444443
endloop
endfacet
facet normal -1.000000 0.000000 0.000000
outer loop
vertex 0.000000 0.116853 1.444443
vertex 0.000000 0.107612 1.461732
vertex 0.000000 0.101921 1.480491
endloop
endfacet
facet normal -1.000000 0.000000 0.000000
outer loop
vertex 0.000000 0.101921 1.480491
vertex 0.000000 0.100000 1.500000
vertex 0.000000 0.101921 1.519509
endloop
endfacet
facet normal -1.000000 0.000000 0.000000
outer loop
vertex 0.000000 0.101921 1.519509
vertex 0.000000 0.107612 1.538269
vertex 0.000000 0.116853 1.555557
endloop
endfacet
facet normal -1.000000 0.000000 0.000000
outer loop
vertex 0.000000 0.116853 1.555557
vertex 0.000000 0.129289 1.570711
vertex 0.000000 0.144443 1.583147
endloop
endfacet
facet normal -1.000000 0.000000 0.000000
outer loop
vertex 0.000000 0.144443 1.583147
vertex 0.000000 0.161732 1.592388
vertex 0.000000 0.180491 1.598079
endloop
endfacet
facet normal -1.000000 0.000000 0.000000
outer loop
vertex 0.000000 0.180491 1.598079
vertex 0.000000 0.200000 1.600000
vertex 0.000000 0.219509 1.598079
endloop
endfacet
facet normal -1.000000 0.000000 0.000000
outer loop
vertex 0.000000 0.219509 1.598079
vertex 0.000000 0.238268 1.592388
vertex 0.000000 0.255557 1.583147
endloop
endfacet
facet normal -1.000000 0.000000 0.000000
outer loop
vertex 0.000000 0.255557 1.583147
vertex 0.000000 0.270711 1.570711
vertex 0.000000 0.283147 1.555557
endloop
endfacet
facet normal -1.000000 0.000000 0.000000
outer loop
vertex 0.000000 0.283147 1.555557
vertex 0.000000 0.292388 1.538268
vertex 0.000000 0.298079 1.519509
endloop
endfacet
facet normal -1.000000 0.000000 0.000000
outer loop
vertex 0.000000 0.298079 1.519509
vertex 0.000000 0.298079 1.480491
vertex 0.000000 0.283147 1.444443
endloop
endfacet
facet normal -1.000000 0.000000 0.000000
outer loop
vertex 0.000000 0.283147 1.444443
vertex 0.000000 0.255557 1.416853
vertex 0.000000 0.219509 1.401922
endloop
endfacet
facet normal -1.000000 0.000000 0.000000
outer loop
vertex 0.000000 0.219509 1.401922
vertex 0.000000 0.180491 1.401922
vertex 0.000000 0.144443 1.416853
endloop
endfacet
facet normal -1.000000 0.000000 0.000000
outer loop
vertex 0.000000 0.144443 1.416853
vertex 0.000000 0.116853 1.444443
vertex 0.000000 0.101921 1.480491
endloop
endfacet
facet normal -1.000000 0.000000 0.000000
outer loop
vertex 0.000000 0.101921 1.480491
vertex 0.000000 0.101921 1.519509
vertex 0.000000 0.116853 1.555557
endloop
endfacet
facet normal -1.000000 0.000000 0.000000
outer loop
vertex 0.000000 0.116853 1.555557
vertex 0.000000 0.144443 1.583147
vertex 0.000000 0.180491 1.598079
endloop
endfacet
facet normal -1.000000 0.000000 0.000000
outer loop
vertex 0.000000 0.180491 1.598079
vertex 0.000000 0.219509 1.598079
vertex 0.000000 0.255557 1.583147
endloop
endfacet
facet normal -1.000000 0.000000 0.000000
outer loop
vertex 0.000000 0.255557 1.583147
vertex 0.000000 0.283147 1.555557
vertex 0.000000 0.298079 1.519509
endloop
endfacet
facet normal -1.000000 0.000000 0.000000
outer loop
vertex 0.000000 0.298079 1.519509
vertex 0.000000 0.283147 1.444443
vertex 0.000000 0.219509 1.401922
endloop
endfacet
facet normal -1.000000 0.000000 0.000000
outer loop
vertex 0.000000 0.219509 1.401922
vertex 0.000000 0.144443 1.416853
vertex 0.000000 0.101921 1.480491
endloop
endfacet
facet normal -1.000000 0.000000 0.000000
outer loop
vertex 0.000000 0.101921 1.480491
vertex 0.000000 0.116853 1.555557
vertex 0.000000 0.180491 1.598079
endloop
endfacet
facet normal -1.000000 0.000000 0.000000
outer loop
vertex 0.000000 0.180491 1.598079
vertex 0.000000 0.255557 1.583147
vertex 0.000000 0.298079 1.519509
endloop
endfacet
facet normal -1.000000 0.000000 0.000000
outer loop
vertex 0.000000 0.298079 1.519509
vertex 0.000000 0.219509 1.401922
vertex 0.000000 0.101921 1.480491
endloop
endfacet
facet normal -1.000000 0.000000 0.000000
outer loop
vertex 0.000000 0.101921 1.480491
vertex 0.000000 0.180491 1.598079
vertex 0.000000 0.298079 1.519509
endloop
endfacet
endsolid Exported from Blender-2.91.2
