solid Exported from Blender-2.91.2
facet normal 0.583235 0.812303 0.000000
outer loop
vertex 7.868278 0.184703 0.000000
vertex 7.840809 0.204425 0.000000
vertex 7.840809 0.204425 3.000000
endloop
endfacet
facet normal 0.583253 0.812290 0.000000
outer loop
vertex 7.868278 0.184703 0.000000
vertex 7.840809 0.204425 3.000000
vertex 7.868278 0.184703 3.000000
endloop
endfacet
facet normal 0.542890 0.839804 0.000000
outer loop
vertex 7.840809 0.204425 0.000000
vertex 4.781207 2.182300 0.000000
vertex 4.781207 2.182300 3.000000
endloop
endfacet
facet normal 0.542890 0.839804 0.000000
outer loop
vertex 7.840809 0.204425 0.000000
vertex 4.781207 2.182300 3.000000
vertex 7.840809 0.204425 3.000000
endloop
endfacet
facet normal 0.471572 0.881828 0.000000
outer loop
vertex 4.781207 2.182300 0.000000
vertex 4.655409 2.249573 0.000000
vertex 4.655409 2.249573 3.000000
endloop
endfacet
facet normal 0.471574 0.881826 0.000000
outer loop
vertex 4.781207 2.182300 0.000000
vertex 4.655409 2.249573 3.000000
vertex 4.781207 2.182300 3.000000
endloop
endfacet
facet normal 0.894424 0.447219 0.000000
outer loop
vertex 8.000000 0.000000 0.000000
vertex 7.954668 0.090664 0.000000
vertex 7.954668 0.090664 3.000000
endloop
endfacet
facet normal 0.894430 0.447209 0.000000
outer loop
vertex 8.000000 0.000000 0.000000
vertex 7.954668 0.090664 3.000000
vertex 8.000000 0.000000 3.000000
endloop
endfacet
facet normal 0.360645 0.932703 0.000000
outer loop
vertex 4.655409 2.249573 0.000000
vertex 4.498458 2.310261 0.000000
vertex 4.498458 2.310261 3.000000
endloop
endfacet
facet normal 0.360646 0.932703 0.000000
outer loop
vertex 4.655409 2.249573 0.000000
vertex 4.498458 2.310261 3.000000
vertex 4.655409 2.249573 3.000000
endloop
endfacet
facet normal 0.845036 0.534709 0.000000
outer loop
vertex 7.954668 0.090664 0.000000
vertex 7.941380 0.111663 0.000000
vertex 7.941380 0.111663 3.000000
endloop
endfacet
facet normal 0.845013 0.534746 0.000000
outer loop
vertex 7.954668 0.090664 0.000000
vertex 7.941380 0.111663 3.000000
vertex 7.954668 0.090664 3.000000
endloop
endfacet
facet normal 0.268571 0.963260 0.000000
outer loop
vertex 4.498458 2.310261 0.000000
vertex 4.325719 2.358423 0.000000
vertex 4.325719 2.358423 3.000000
endloop
endfacet
facet normal 0.268571 0.963260 0.000000
outer loop
vertex 4.498458 2.310261 0.000000
vertex 4.325719 2.358423 3.000000
vertex 4.498458 2.310261 3.000000
endloop
endfacet
facet normal 0.768193 0.640219 0.000000
outer loop
vertex 7.941380 0.111663 0.000000
vertex 7.921151 0.135935 0.000000
vertex 7.921151 0.135935 3.000000
endloop
endfacet
facet normal 0.768173 0.640242 0.000000
outer loop
vertex 7.941380 0.111663 0.000000
vertex 7.921151 0.135935 3.000000
vertex 7.941380 0.111663 3.000000
endloop
endfacet
facet normal 0.177322 0.984153 0.000000
outer loop
vertex 4.325719 2.358423 0.000000
vertex 4.154099 2.389345 0.000000
vertex 4.154099 2.389345 3.000000
endloop
endfacet
facet normal 0.177322 0.984153 0.000000
outer loop
vertex 4.325719 2.358423 0.000000
vertex 4.154099 2.389345 3.000000
vertex 4.325719 2.358423 3.000000
endloop
endfacet
facet normal 0.706814 0.707400 0.000000
outer loop
vertex 7.921151 0.135935 0.000000
vertex 7.895962 0.161103 0.000000
vertex 7.895962 0.161103 3.000000
endloop
endfacet
facet normal 0.706796 0.707417 0.000000
outer loop
vertex 7.921151 0.135935 0.000000
vertex 7.895962 0.161103 3.000000
vertex 7.921151 0.135935 3.000000
endloop
endfacet
facet normal 0.069157 0.997606 0.000000
outer loop
vertex 4.154099 2.389345 0.000000
vertex 4.000400 2.400000 0.000000
vertex 4.000400 2.400000 3.000000
endloop
endfacet
facet normal 0.069157 0.997606 0.000000
outer loop
vertex 4.154099 2.389345 0.000000
vertex 4.000400 2.400000 3.000000
vertex 4.154099 2.389345 3.000000
endloop
endfacet
facet normal 0.648737 0.761013 0.000000
outer loop
vertex 7.895962 0.161103 0.000000
vertex 7.868278 0.184703 0.000000
vertex 7.868278 0.184703 3.000000
endloop
endfacet
facet normal 0.648737 0.761013 0.000000
outer loop
vertex 7.895962 0.161103 0.000000
vertex 7.868278 0.184703 3.000000
vertex 7.895962 0.161103 3.000000
endloop
endfacet
facet normal -1.000000 0.000000 0.000000
outer loop
vertex 5.500000 0.292388 1.538268
vertex 5.500000 0.298079 1.519509
vertex 5.500000 0.300000 1.500000
endloop
endfacet
facet normal -1.000000 0.000000 0.000000
outer loop
vertex 5.500000 0.300000 1.500000
vertex 5.500000 0.298079 1.480491
vertex 5.500000 0.292388 1.461732
endloop
endfacet
facet normal -1.000000 0.000000 0.000000
outer loop
vertex 5.500000 0.292388 1.461732
vertex 5.500000 0.283147 1.444443
vertex 5.500000 0.270711 1.429289
endloop
endfacet
facet normal -1.000000 0.000000 0.000000
outer loop
vertex 5.500000 0.270711 1.429289
vertex 5.500000 0.255557 1.416853
vertex 5.500000 0.238268 1.407612
endloop
endfacet
facet normal -1.000000 0.000000 0.000000
outer loop
vertex 5.500000 0.238268 1.407612
vertex 5.500000 0.219509 1.401922
vertex 5.500000 0.200000 1.400000
endloop
endfacet
facet normal -1.000000 0.000000 0.000000
outer loop
vertex 5.500000 0.200000 1.400000
vertex 5.500000 0.180491 1.401922
vertex 5.500000 0.161732 1.407612
endloop
endfacet
facet normal -1.000000 0.000000 0.000000
outer loop
vertex 5.500000 0.161732 1.407612
vertex 5.500000 0.144443 1.416853
vertex 5.500000 0.129289 1.429289
endloop
endfacet
facet normal -1.000000 0.000000 0.000000
outer loop
vertex 5.500000 0.129289 1.429289
vertex 5.500000 0.116853 1.444443
vertex 5.500000 0.107612 1.461732
endloop
endfacet
facet normal -1.000000 0.000000 0.000000
outer loop
vertex 5.500000 0.107612 1.461732
vertex 5.500000 0.101922 1.480491
vertex 5.500000 0.100000 1.500000
endloop
endfacet
facet normal -1.000000 0.000000 0.000000
outer loop
vertex 5.500000 0.100000 1.500000
vertex 5.500000 0.101922 1.519509
vertex 5.500000 0.107612 1.538268
endloop
endfacet
facet normal -1.000000 0.000000 0.000000
outer loop
vertex 5.500000 0.107612 1.538268
vertex 5.500000 0.116853 1.555557
vertex 5.500000 0.129289 1.570711
endloop
endfacet
facet normal -1.000000 0.000000 0.000000
outer loop
vertex 5.500000 0.129289 1.570711
vertex 5.500000 0.144443 1.583147
vertex 5.500000 0.161732 1.592388
endloop
endfacet
facet normal -1.000000 0.000000 0.000000
outer loop
vertex 5.500000 0.161732 1.592388
vertex 5.500000 0.180491 1.598078
vertex 5.500000 0.200000 1.600000
endloop
endfacet
facet normal -1.000000 0.000000 0.000000
outer loop
vertex 5.500000 0.200000 1.600000
vertex 5.500000 0.219509 1.598078
vertex 5.500000 0.238268 1.592388
endloop
endfacet
facet normal -1.000000 0.000000 0.000000
outer loop
vertex 5.500000 0.238268 1.592388
vertex 5.500000 0.255557 1.583147
vertex 5.500000 0.270711 1.570711
endloop
endfacet
facet normal -1.000000 0.000000 0.000000
outer loop
vertex 5.500000 0.270711 1.570711
vertex 5.500000 0.283147 1.555557
vertex 5.500000 0.292388 1.538268
endloop
endfacet
facet normal -1.000000 0.000000 0.000000
outer loop
vertex 5.500000 0.292388 1.538268
vertex 5.500000 0.300000 1.500000
vertex 5.500000 0.292388 1.461732
endloop
endfacet
facet normal -1.000000 0.000000 0.000000
outer loop
vertex 5.500000 0.292388 1.461732
vertex 5.500000 0.270711 1.429289
vertex 5.500000 0.238268 1.407612
endloop
endfacet
facet normal -1.000000 0.000000 0.000000
outer loop
vertex 5.500000 0.238268 1.407612
vertex 5.500000 0.200000 1.400000
vertex 5.500000 0.161732 1.407612
endloop
endfacet
facet normal -1.000000 0.000000 0.000000
outer loop
vertex 5.500000 0.161732 1.407612
vertex 5.500000 0.129289 1.429289
vertex 5.500000 0.107612 1.461732
endloop
endfacet
facet normal -1.000000 0.000000 0.000000
outer loop
vertex 5.500000 0.107612 1.461732
vertex 5.500000 0.100000 1.500000
vertex 5.500000 0.107612 1.538268
endloop
endfacet
facet normal -1.000000 0.000000 0.000000
outer loop
vertex 5.500000 0.107612 1.538268
vertex 5.500000 0.129289 1.570711
vertex 5.500000 0.161732 1.592388
endloop
endfacet
facet normal -1.000000 0.000000 0.000000
outer loop
vertex 5.500000 0.161732 1.592388
vertex 5.500000 0.200000 1.600000
vertex 5.500000 0.238268 1.592388
endloop
endfacet
facet normal -1.000000 0.000000 0.000000
outer loop
vertex 5.500000 0.238268 1.592388
vertex 5.500000 0.270711 1.570711
vertex 5.500000 0.292388 1.538268
endloop
endfacet
facet normal -1.000000 0.000000 0.000000
outer loop
vertex 5.500000 0.292388 1.538268
vertex 5.500000 0.292388 1.461732
vertex 5.500000 0.238268 1.407612
endloop
endfacet
facet normal -1.000000 0.000000 0.000000
outer loop
vertex 5.500000 0.238268 1.407612
vertex 5.500000 0.161732 1.407612
vertex 5.500000 0.107612 1.461732
endloop
endfacet
facet normal -1.000000 0.000000 0.000000
outer loop
vertex 5.500000 0.107612 1.461732
vertex 5.500000 0.107612 1.538268
vertex 5.500000 0.161732 1.592388
endloop
endfacet
facet normal -1.000000 0.000000 0.000000
outer loop
vertex 5.500000 0.161732 1.592388
vertex 5.500000 0.238268 1.592388
vertex 5.500000 0.292388 1.538268
endloop
endfacet
facet normal -1.000000 0.000000 0.000000
outer loop
vertex 5.500000 0.292388 1.538268
vertex 5.500000 0.238268 1.407612
vertex 5.500000 0.107612 1.461732
endloop
endfacet
facet normal -1.000000 0.000000 0.000000
outer loop
vertex 5.500000 0.107612 1.461732
vertex 5.500000 0.161732 1.592388
vertex 5.500000 0.292388 1.538268
endloop
endfacet
facet normal -1.000000 0.000000 0.000000
outer loop
vertex 4.000000 0.000000 1.500000
vertex 4.000000 0.100000 1.500000
vertex 4.000000 0.101922 1.480491
endloop
endfacet
facet normal -1.000000 0.000000 0.000000
outer loop
vertex 4.000000 0.000000 1.500000
vertex 4.000000 0.101922 1.480491
vertex 4.000000 0.107612 1.461732
endloop
endfacet
facet normal -1.000000 0.000000 0.000000
outer loop
vertex 4.000000 2.400000 0.000000
vertex 4.000000 0.000000 0.000000
vertex 4.000000 0.000000 1.500000
endloop
endfacet
facet normal -1.000000 0.000000 0.000000
outer loop
vertex 4.000000 0.255557 1.583147
vertex 4.000000 0.238268 1.592388
vertex 4.000000 2.400000 2.400000
endloop
endfacet
facet normal -1.000000 0.000000 0.000000
outer loop
vertex 4.000000 0.270711 1.570711
vertex 4.000000 0.255557 1.583147
vertex 4.000000 2.400000 2.400000
endloop
endfacet
facet normal -1.000000 0.000000 0.000000
outer loop
vertex 4.000000 0.000000 1.500000
vertex 4.000000 0.107612 1.461732
vertex 4.000000 0.116853 1.444443
endloop
endfacet
facet normal -1.000000 0.000000 0.000000
outer loop
vertex 4.000000 0.000000 1.500000
vertex 4.000000 0.116853 1.444443
vertex 4.000000 0.129289 1.429289
endloop
endfacet
facet normal -1.000000 0.000000 0.000000
outer loop
vertex 4.000000 0.270711 1.570711
vertex 4.000000 2.400000 2.400000
vertex 4.000000 2.400000 0.000000
endloop
endfacet
facet normal -1.000000 0.000000 0.000000
outer loop
vertex 4.000000 0.283147 1.555557
vertex 4.000000 0.270711 1.570711
vertex 4.000000 2.400000 0.000000
endloop
endfacet
facet normal -1.000000 0.000000 0.000000
outer loop
vertex 4.000000 0.000000 1.500000
vertex 4.000000 0.129289 1.429289
vertex 4.000000 0.144443 1.416853
endloop
endfacet
facet normal -1.000000 0.000000 0.000000
outer loop
vertex 4.000000 2.400000 0.000000
vertex 4.000000 0.000000 1.500000
vertex 4.000000 0.144443 1.416853
endloop
endfacet
facet normal -1.000000 0.000000 0.000000
outer loop
vertex 4.000000 0.292388 1.538268
vertex 4.000000 0.283147 1.555557
vertex 4.000000 2.400000 0.000000
endloop
endfacet
facet normal -1.000000 0.000000 0.000000
outer loop
vertex 4.000000 0.298079 1.519509
vertex 4.000000 0.292388 1.538268
vertex 4.000000 2.400000 0.000000
endloop
endfacet
facet normal -1.000000 0.000000 0.000000
outer loop
vertex 4.000000 2.400000 0.000000
vertex 4.000000 0.144443 1.416853
vertex 4.000000 0.161732 1.407612
endloop
endfacet
facet normal -1.000000 0.000000 0.000000
outer loop
vertex 4.000000 2.400000 0.000000
vertex 4.000000 0.161732 1.407612
vertex 4.000000 0.180491 1.401922
endloop
endfacet
facet normal -1.000000 0.000000 0.000000
outer loop
vertex 4.000000 0.300000 1.500000
vertex 4.000000 0.298079 1.519509
vertex 4.000000 2.400000 0.000000
endloop
endfacet
facet normal -1.000000 0.000000 0.000000
outer loop
vertex 4.000000 0.298079 1.480491
vertex 4.000000 0.300000 1.500000
vertex 4.000000 2.400000 0.000000
endloop
endfacet
facet normal -1.000000 0.000000 0.000000
outer loop
vertex 4.000000 2.400000 0.000000
vertex 4.000000 0.180491 1.401922
vertex 4.000000 0.200000 1.400000
endloop
endfacet
facet normal -1.000000 0.000000 0.000000
outer loop
vertex 4.000000 2.400000 0.000000
vertex 4.000000 0.200000 1.400000
vertex 4.000000 0.219509 1.401922
endloop
endfacet
facet normal -1.000000 0.000000 0.000000
outer loop
vertex 4.000000 0.292388 1.461732
vertex 4.000000 0.298079 1.480491
vertex 4.000000 2.400000 0.000000
endloop
endfacet
facet normal -1.000000 0.000000 0.000000
outer loop
vertex 4.000000 0.283147 1.444443
vertex 4.000000 0.292388 1.461732
vertex 4.000000 2.400000 0.000000
endloop
endfacet
facet normal -1.000000 0.000000 0.000000
outer loop
vertex 4.000000 2.400000 0.000000
vertex 4.000000 0.219509 1.401922
vertex 4.000000 0.238268 1.407612
endloop
endfacet
facet normal -1.000000 0.000000 0.000000
outer loop
vertex 4.000000 2.400000 0.000000
vertex 4.000000 0.238268 1.407612
vertex 4.000000 0.255557 1.416853
endloop
endfacet
facet normal -1.000000 0.000000 0.000000
outer loop
vertex 4.000000 0.270711 1.429289
vertex 4.000000 0.283147 1.444443
vertex 4.000000 2.400000 0.000000
endloop
endfacet
facet normal -1.000000 0.000000 0.000000
outer loop
vertex 4.000000 0.255557 1.416853
vertex 4.000000 0.270711 1.429289
vertex 4.000000 2.400000 0.000000
endloop
endfacet
facet normal -1.000000 0.000000 0.000000
outer loop
vertex 4.000000 2.400000 3.000000
vertex 4.000000 2.400000 2.400000
vertex 4.000000 0.238268 1.592388
endloop
endfacet
facet normal -1.000000 0.000000 0.000000
outer loop
vertex 4.000000 2.400000 3.000000
vertex 4.000000 0.238268 1.592388
vertex 4.000000 0.219509 1.598078
endloop
endfacet
facet normal -1.000000 0.000000 0.000000
outer loop
vertex 4.000000 0.000000 1.500000
vertex 4.000000 0.000000 3.000000
vertex 4.000000 2.400000 3.000000
endloop
endfacet
facet normal -1.000000 0.000000 0.000000
outer loop
vertex 4.000000 0.101922 1.519509
vertex 4.000000 0.100000 1.500000
vertex 4.000000 0.000000 1.500000
endloop
endfacet
facet normal -1.000000 0.000000 0.000000
outer loop
vertex 4.000000 0.107612 1.538268
vertex 4.000000 0.101922 1.519509
vertex 4.000000 0.000000 1.500000
endloop
endfacet
facet normal -1.000000 0.000000 0.000000
outer loop
vertex 4.000000 2.400000 3.000000
vertex 4.000000 0.219509 1.598078
vertex 4.000000 0.200000 1.600000
endloop
endfacet
facet normal -1.000000 0.000000 0.000000
outer loop
vertex 4.000000 2.400000 3.000000
vertex 4.000000 0.200000 1.600000
vertex 4.000000 0.180491 1.598078
endloop
endfacet
facet normal -1.000000 0.000000 0.000000
outer loop
vertex 4.000000 0.116853 1.555557
vertex 4.000000 0.107612 1.538268
vertex 4.000000 0.000000 1.500000
endloop
endfacet
facet normal -1.000000 0.000000 0.000000
outer loop
vertex 4.000000 0.129289 1.570711
vertex 4.000000 0.116853 1.555557
vertex 4.000000 0.000000 1.500000
endloop
endfacet
facet normal -1.000000 0.000000 0.000000
outer loop
vertex 4.000000 2.400000 3.000000
vertex 4.000000 0.180491 1.598078
vertex 4.000000 0.161732 1.592388
endloop
endfacet
facet normal -1.000000 0.000000 0.000000
outer loop
vertex 4.000000 0.144443 1.583147
vertex 4.000000 0.129289 1.570711
vertex 4.000000 0.000000 1.500000
endloop
endfacet
facet normal -1.000000 0.000000 0.000000
outer loop
vertex 4.000000 2.400000 3.000000
vertex 4.000000 0.161732 1.592388
vertex 4.000000 0.144443 1.583147
endloop
endfacet
facet normal -1.000000 0.000000 0.000000
outer loop
vertex 4.000000 0.144443 1.583147
vertex 4.000000 0.000000 1.500000
vertex 4.000000 2.400000 3.000000
endloop
endfacet
facet normal 0.000000 0.000000 1.000000
outer loop
vertex 7.921151 0.135935 3.000000
vertex 7.895962 0.161103 3.000000
vertex 7.868278 0.184703 3.000000
endloop
endfacet
facet normal 0.000000 0.000000 1.000000
outer loop
vertex 7.868278 0.184703 3.000000
vertex 7.840809 0.204425 3.000000
vertex 4.781207 2.182300 3.000000
endloop
endfacet
facet normal 0.000000 0.000000 1.000000
outer loop
vertex 4.781207 2.182300 3.000000
vertex 4.655409 2.249573 3.000000
vertex 4.498458 2.310261 3.000000
endloop
endfacet
facet normal 0.000000 0.000000 1.000000
outer loop
vertex 4.498458 2.310261 3.000000
vertex 4.325719 2.358423 3.000000
vertex 4.154099 2.389345 3.000000
endloop
endfacet
facet normal 0.000000 0.000000 1.000000
outer loop
vertex 4.154099 2.389345 3.000000
vertex 4.000400 2.400000 3.000000
vertex 4.000000 2.400000 3.000000
endloop
endfacet
facet normal 0.000000 0.000000 1.000000
outer loop
vertex 4.000000 2.400000 3.000000
vertex 4.000000 0.000000 3.000000
vertex 8.000000 0.000000 3.000000
endloop
endfacet
facet normal 0.000000 0.000000 1.000000
outer loop
vertex 8.000000 0.000000 3.000000
vertex 7.954668 0.090664 3.000000
vertex 7.941380 0.111663 3.000000
endloop
endfacet
facet normal 0.000000 0.000000 1.000000
outer loop
vertex 7.941380 0.111663 3.000000
vertex 7.921151 0.135935 3.000000
vertex 7.868278 0.184703 3.000000
endloop
endfacet
facet normal 0.000000 0.000000 1.000000
outer loop
vertex 7.868278 0.184703 3.000000
vertex 4.781207 2.182300 3.000000
vertex 4.498458 2.310261 3.000000
endloop
endfacet
facet normal 0.000000 0.000000 1.000000
outer loop
vertex 4.498458 2.310261 3.000000
vertex 4.154099 2.389345 3.000000
vertex 4.000000 2.400000 3.000000
endloop
endfacet
facet normal -0.000002 0.000000 1.000000
outer loop
vertex 4.000000 2.400000 3.000000
vertex 8.000000 0.000000 3.000000
vertex 7.941380 0.111663 3.000000
endloop
endfacet
facet normal -0.000011 0.000000 1.000000
outer loop
vertex 7.941380 0.111663 3.000000
vertex 7.868278 0.184703 3.000000
vertex 4.498458 2.310261 3.000000
endloop
endfacet
facet normal 0.000002 0.000000 1.000000
outer loop
vertex 4.498458 2.310261 3.000000
vertex 4.000000 2.400000 3.000000
vertex 7.941380 0.111663 3.000000
endloop
endfacet
facet normal 0.000000 0.000000 -1.000000
outer loop
vertex 4.000000 0.000000 0.000000
vertex 4.000000 2.400000 0.000000
vertex 4.000400 2.400000 0.000000
endloop
endfacet
facet normal 0.000000 0.000000 -1.000000
outer loop
vertex 4.000400 2.400000 0.000000
vertex 4.154099 2.389345 0.000000
vertex 4.325719 2.358423 0.000000
endloop
endfacet
facet normal 0.000000 0.000000 -1.000000
outer loop
vertex 4.325719 2.358423 0.000000
vertex 4.498458 2.310261 0.000000
vertex 4.655409 2.249573 0.000000
endloop
endfacet
facet normal 0.000000 0.000000 -1.000000
outer loop
vertex 4.655409 2.249573 0.000000
vertex 4.781207 2.182300 0.000000
vertex 7.840809 0.204425 0.000000
endloop
endfacet
facet normal 0.000000 0.000000 -1.000000
outer loop
vertex 7.840809 0.204425 0.000000
vertex 7.868278 0.184703 0.000000
vertex 7.895962 0.161103 0.000000
endloop
endfacet
facet normal 0.000000 0.000000 -1.000000
outer loop
vertex 7.895962 0.161103 0.000000
vertex 7.921151 0.135935 0.000000
vertex 7.941380 0.111663 0.000000
endloop
endfacet
facet normal 0.000000 0.000000 -1.000000
outer loop
vertex 7.941380 0.111663 0.000000
vertex 7.954668 0.090664 0.000000
vertex 8.000000 0.000000 0.000000
endloop
endfacet
facet normal 0.000000 0.000000 -1.000000
outer loop
vertex 8.000000 0.000000 0.000000
vertex 4.000000 0.000000 0.000000
vertex 4.000400 2.400000 0.000000
endloop
endfacet
facet normal 0.000000 0.000000 -1.000000
outer loop
vertex 4.000400 2.400000 0.000000
vertex 4.325719 2.358423 0.000000
vertex 4.655409 2.249573 0.000000
endloop
endfacet
facet normal 0.000000 0.000000 -1.000000
outer loop
vertex 4.655409 2.249573 0.000000
vertex 7.840809 0.204425 0.000000
vertex 7.895962 0.161103 0.000000
endloop
endfacet
facet normal 0.000000 0.000000 -1.000000
outer loop
vertex 7.895962 0.161103 0.000000
vertex 7.941380 0.111663 0.000000
vertex 8.000000 0.000000 0.000000
endloop
endfacet
facet normal 0.000000 0.000000 -1.000000
outer loop
vertex 8.000000 0.000000 0.000000
vertex 4.000400 2.400000 0.000000
vertex 4.655409 2.249573 0.000000
endloop
endfacet
facet normal 0.000000 0.000000 -1.000000
outer loop
vertex 4.655409 2.249573 0.000000
vertex 7.895962 0.161103 0.000000
vertex 8.000000 0.000000 0.000000
endloop
endfacet
facet normal 0.000000 -1.000000 0.000000
outer loop
vertex 4.000000 0.000000 0.000000
vertex 8.000000 0.000000 0.000000
vertex 8.000000 0.000000 3.000000
endloop
endfacet
facet normal 0.000000 -1.000000 0.000000
outer loop
vertex 8.000000 0.000000 3.000000
vertex 4.000000 0.000000 3.000000
vertex 4.000000 0.000000 1.500000
endloop
endfacet
facet normal 0.000000 -1.000000 0.000000
outer loop
vertex 8.000000 0.000000 3.000000
vertex 4.000000 0.000000 1.500000
vertex 4.000000 0.000000 0.000000
endloop
endfacet
facet normal 0.000000 1.000000 0.000000
outer loop
vertex 4.000000 2.400000 3.000000
vertex 4.000400 2.400000 3.000000
vertex 4.000400 2.400000 0.000000
endloop
endfacet
facet normal 0.000000 1.000000 0.000000
outer loop
vertex 4.000400 2.400000 0.000000
vertex 4.000000 2.400000 0.000000
vertex 4.000000 2.400000 2.400000
endloop
endfacet
facet normal 0.000000 1.000000 0.000000
outer loop
vertex 4.000400 2.400000 0.000000
vertex 4.000000 2.400000 2.400000
vertex 4.000000 2.400000 3.000000
endloop
endfacet
facet normal 0.000000 -0.995185 0.098018
outer loop
vertex 4.000000 0.298079 1.480491
vertex 5.500000 0.298079 1.480491
vertex 5.500000 0.300000 1.500000
endloop
endfacet
facet normal 0.000000 -0.995185 0.098016
outer loop
vertex 4.000000 0.298079 1.480491
vertex 5.500000 0.300000 1.500000
vertex 4.000000 0.300000 1.500000
endloop
endfacet
facet normal 0.000000 -0.956940 0.290286
outer loop
vertex 4.000000 0.292388 1.461732
vertex 5.500000 0.292388 1.461732
vertex 5.500000 0.298079 1.480491
endloop
endfacet
facet normal 0.000000 -0.956940 0.290286
outer loop
vertex 4.000000 0.292388 1.461732
vertex 5.500000 0.298079 1.480491
vertex 4.000000 0.298079 1.480491
endloop
endfacet
facet normal 0.000000 -0.881923 0.471393
outer loop
vertex 4.000000 0.283147 1.444443
vertex 5.500000 0.283147 1.444443
vertex 5.500000 0.292388 1.461732
endloop
endfacet
facet normal 0.000000 -0.881922 0.471395
outer loop
vertex 4.000000 0.283147 1.444443
vertex 5.500000 0.292388 1.461732
vertex 4.000000 0.292388 1.461732
endloop
endfacet
facet normal 0.000000 -0.773010 0.634394
outer loop
vertex 4.000000 0.270711 1.429289
vertex 5.500000 0.270711 1.429289
vertex 5.500000 0.283147 1.444443
endloop
endfacet
facet normal 0.000000 -0.773009 0.634396
outer loop
vertex 4.000000 0.270711 1.429289
vertex 5.500000 0.283147 1.444443
vertex 4.000000 0.283147 1.444443
endloop
endfacet
facet normal 0.000000 -0.634392 0.773011
outer loop
vertex 4.000000 0.255557 1.416853
vertex 5.500000 0.255557 1.416853
vertex 5.500000 0.270711 1.429289
endloop
endfacet
facet normal 0.000000 -0.634391 0.773012
outer loop
vertex 4.000000 0.255557 1.416853
vertex 5.500000 0.270711 1.429289
vertex 4.000000 0.270711 1.429289
endloop
endfacet
facet normal 0.000000 -0.471398 0.881921
outer loop
vertex 4.000000 0.238268 1.407612
vertex 5.500000 0.238268 1.407612
vertex 5.500000 0.255557 1.416853
endloop
endfacet
facet normal 0.000000 -0.471397 0.881921
outer loop
vertex 4.000000 0.238268 1.407612
vertex 5.500000 0.255557 1.416853
vertex 4.000000 0.255557 1.416853
endloop
endfacet
facet normal 0.000000 -0.290285 0.956940
outer loop
vertex 4.000000 0.219509 1.401922
vertex 5.500000 0.219509 1.401922
vertex 5.500000 0.238268 1.407612
endloop
endfacet
facet normal 0.000000 -0.290284 0.956940
outer loop
vertex 4.000000 0.219509 1.401922
vertex 5.500000 0.238268 1.407612
vertex 4.000000 0.238268 1.407612
endloop
endfacet
facet normal 0.000000 -0.098020 0.995184
outer loop
vertex 4.000000 0.200000 1.400000
vertex 5.500000 0.200000 1.400000
vertex 5.500000 0.219509 1.401922
endloop
endfacet
facet normal 0.000000 -0.098020 0.995184
outer loop
vertex 4.000000 0.200000 1.400000
vertex 5.500000 0.219509 1.401922
vertex 4.000000 0.219509 1.401922
endloop
endfacet
facet normal 0.000000 0.098020 0.995184
outer loop
vertex 4.000000 0.180491 1.401922
vertex 5.500000 0.180491 1.401922
vertex 5.500000 0.200000 1.400000
endloop
endfacet
facet normal 0.000000 0.098020 0.995184
outer loop
vertex 4.000000 0.180491 1.401922
vertex 5.500000 0.200000 1.400000
vertex 4.000000 0.200000 1.400000
endloop
endfacet
facet normal 0.000000 0.290286 0.956940
outer loop
vertex 4.000000 0.161732 1.407612
vertex 5.500000 0.161732 1.407612
vertex 5.500000 0.180491 1.401922
endloop
endfacet
facet normal 0.000000 0.290286 0.956940
outer loop
vertex 4.000000 0.161732 1.407612
vertex 5.500000 0.180491 1.401922
vertex 4.000000 0.180491 1.401922
endloop
endfacet
facet normal 0.000000 0.471396 0.881921
outer loop
vertex 4.000000 0.144443 1.416853
vertex 5.500000 0.144443 1.416853
vertex 5.500000 0.161732 1.407612
endloop
endfacet
facet normal 0.000000 0.471396 0.881921
outer loop
vertex 4.000000 0.144443 1.416853
vertex 5.500000 0.161732 1.407612
vertex 4.000000 0.161732 1.407612
endloop
endfacet
facet normal 0.000000 0.634393 0.773011
outer loop
vertex 4.000000 0.129289 1.429289
vertex 5.500000 0.129289 1.429289
vertex 5.500000 0.144443 1.416853
endloop
endfacet
facet normal 0.000000 0.634393 0.773011
outer loop
vertex 4.000000 0.129289 1.429289
vertex 5.500000 0.144443 1.416853
vertex 4.000000 0.144443 1.416853
endloop
endfacet
facet normal 0.000000 0.773008 0.634397
outer loop
vertex 4.000000 0.116853 1.444443
vertex 5.500000 0.116853 1.444443
vertex 5.500000 0.129289 1.429289
endloop
endfacet
facet normal 0.000000 0.773008 0.634397
outer loop
vertex 4.000000 0.116853 1.444443
vertex 5.500000 0.129289 1.429289
vertex 4.000000 0.129289 1.429289
endloop
endfacet
facet normal 0.000000 0.881924 0.471392
outer loop
vertex 4.000000 0.107612 1.461732
vertex 5.500000 0.107612 1.461732
vertex 5.500000 0.116853 1.444443
endloop
endfacet
facet normal 0.000000 0.881924 0.471392
outer loop
vertex 4.000000 0.107612 1.461732
vertex 5.500000 0.116853 1.444443
vertex 4.000000 0.116853 1.444443
endloop
endfacet
facet normal 0.000000 0.956941 0.290284
outer loop
vertex 4.000000 0.101922 1.480491
vertex 5.500000 0.101922 1.480491
vertex 5.500000 0.107612 1.461732
endloop
endfacet
facet normal 0.000000 0.956941 0.290284
outer loop
vertex 4.000000 0.101922 1.480491
vertex 5.500000 0.107612 1.461732
vertex 4.000000 0.107612 1.461732
endloop
endfacet
facet normal 0.000000 0.995184 0.098021
outer loop
vertex 4.000000 0.100000 1.500000
vertex 5.500000 0.100000 1.500000
vertex 5.500000 0.101922 1.480491
endloop
endfacet
facet normal 0.000000 0.995184 0.098021
outer loop
vertex 4.000000 0.100000 1.500000
vertex 5.500000 0.101922 1.480491
vertex 4.000000 0.101922 1.480491
endloop
endfacet
facet normal 0.000000 0.995184 -0.098020
outer loop
vertex 5.500000 0.101922 1.519509
vertex 5.500000 0.100000 1.500000
vertex 4.000000 0.100000 1.500000
endloop
endfacet
facet normal 0.000000 0.995184 -0.098020
outer loop
vertex 5.500000 0.101922 1.519509
vertex 4.000000 0.100000 1.500000
vertex 4.000000 0.101922 1.519509
endloop
endfacet
facet normal 0.000000 0.956940 -0.290286
outer loop
vertex 5.500000 0.107612 1.538268
vertex 5.500000 0.101922 1.519509
vertex 4.000000 0.101922 1.519509
endloop
endfacet
facet normal 0.000000 0.956940 -0.290286
outer loop
vertex 5.500000 0.107612 1.538268
vertex 4.000000 0.101922 1.519509
vertex 4.000000 0.107612 1.538268
endloop
endfacet
facet normal 0.000000 0.881921 -0.471396
outer loop
vertex 5.500000 0.116853 1.555557
vertex 5.500000 0.107612 1.538268
vertex 4.000000 0.107612 1.538268
endloop
endfacet
facet normal 0.000000 0.881921 -0.471396
outer loop
vertex 5.500000 0.116853 1.555557
vertex 4.000000 0.107612 1.538268
vertex 4.000000 0.116853 1.555557
endloop
endfacet
facet normal 0.000000 0.773013 -0.634390
outer loop
vertex 5.500000 0.129289 1.570711
vertex 5.500000 0.116853 1.555557
vertex 4.000000 0.116853 1.555557
endloop
endfacet
facet normal 0.000000 0.773013 -0.634390
outer loop
vertex 5.500000 0.129289 1.570711
vertex 4.000000 0.116853 1.555557
vertex 4.000000 0.129289 1.570711
endloop
endfacet
facet normal 0.000000 0.634393 -0.773011
outer loop
vertex 5.500000 0.144443 1.583147
vertex 5.500000 0.129289 1.570711
vertex 4.000000 0.129289 1.570711
endloop
endfacet
facet normal 0.000000 0.634393 -0.773011
outer loop
vertex 5.500000 0.144443 1.583147
vertex 4.000000 0.129289 1.570711
vertex 4.000000 0.144443 1.583147
endloop
endfacet
facet normal 0.000000 0.471396 -0.881921
outer loop
vertex 5.500000 0.161732 1.592388
vertex 5.500000 0.144443 1.583147
vertex 4.000000 0.144443 1.583147
endloop
endfacet
facet normal 0.000000 0.471396 -0.881921
outer loop
vertex 5.500000 0.161732 1.592388
vertex 4.000000 0.144443 1.583147
vertex 4.000000 0.161732 1.592388
endloop
endfacet
facet normal 0.000000 0.290278 -0.956942
outer loop
vertex 5.500000 0.180491 1.598078
vertex 5.500000 0.161732 1.592388
vertex 4.000000 0.161732 1.592388
endloop
endfacet
facet normal 0.000000 0.290278 -0.956942
outer loop
vertex 5.500000 0.180491 1.598078
vertex 4.000000 0.161732 1.592388
vertex 4.000000 0.180491 1.598078
endloop
endfacet
facet normal 0.000000 0.098020 -0.995184
outer loop
vertex 5.500000 0.200000 1.600000
vertex 5.500000 0.180491 1.598078
vertex 4.000000 0.180491 1.598078
endloop
endfacet
facet normal 0.000000 0.098020 -0.995184
outer loop
vertex 5.500000 0.200000 1.600000
vertex 4.000000 0.180491 1.598078
vertex 4.000000 0.200000 1.600000
endloop
endfacet
facet normal 0.000000 -0.098020 -0.995184
outer loop
vertex 5.500000 0.219509 1.598078
vertex 5.500000 0.200000 1.600000
vertex 4.000000 0.200000 1.600000
endloop
endfacet
facet normal 0.000000 -0.098020 -0.995184
outer loop
vertex 5.500000 0.219509 1.598078
vertex 4.000000 0.200000 1.600000
vertex 4.000000 0.219509 1.598078
endloop
endfacet
facet normal 0.000000 -0.290284 -0.956941
outer loop
vertex 5.500000 0.238268 1.592388
vertex 5.500000 0.219509 1.598078
vertex 4.000000 0.219509 1.598078
endloop
endfacet
facet normal 0.000000 -0.290284 -0.956941
outer loop
vertex 5.500000 0.238268 1.592388
vertex 4.000000 0.219509 1.598078
vertex 4.000000 0.238268 1.592388
endloop
endfacet
facet normal 0.000000 -0.471396 -0.881921
outer loop
vertex 5.500000 0.255557 1.583147
vertex 5.500000 0.238268 1.592388
vertex 4.000000 0.238268 1.592388
endloop
endfacet
facet normal 0.000000 -0.471396 -0.881921
outer loop
vertex 5.500000 0.255557 1.583147
vertex 4.000000 0.238268 1.592388
vertex 4.000000 0.255557 1.583147
endloop
endfacet
facet normal 0.000000 -0.634399 -0.773006
outer loop
vertex 5.500000 0.270711 1.570711
vertex 5.500000 0.255557 1.583147
vertex 4.000000 0.255557 1.583147
endloop
endfacet
facet normal 0.000000 -0.634398 -0.773007
outer loop
vertex 5.500000 0.270711 1.570711
vertex 4.000000 0.255557 1.583147
vertex 4.000000 0.270711 1.570711
endloop
endfacet
facet normal 0.000000 -0.773009 -0.634396
outer loop
vertex 5.500000 0.283147 1.555557
vertex 5.500000 0.270711 1.570711
vertex 4.000000 0.270711 1.570711
endloop
endfacet
facet normal 0.000000 -0.773010 -0.634394
outer loop
vertex 5.500000 0.283147 1.555557
vertex 4.000000 0.270711 1.570711
vertex 4.000000 0.283147 1.555557
endloop
endfacet
facet normal 0.000000 -0.881922 -0.471395
outer loop
vertex 5.500000 0.292388 1.538268
vertex 5.500000 0.283147 1.555557
vertex 4.000000 0.283147 1.555557
endloop
endfacet
facet normal 0.000000 -0.881923 -0.471393
outer loop
vertex 5.500000 0.292388 1.538268
vertex 4.000000 0.283147 1.555557
vertex 4.000000 0.292388 1.538268
endloop
endfacet
facet normal 0.000000 -0.956941 -0.290284
outer loop
vertex 5.500000 0.298079 1.519509
vertex 5.500000 0.292388 1.538268
vertex 4.000000 0.292388 1.538268
endloop
endfacet
facet normal 0.000000 -0.956941 -0.290284
outer loop
vertex 5.500000 0.298079 1.519509
vertex 4.000000 0.292388 1.538268
vertex 4.000000 0.298079 1.519509
endloop
endfacet
facet normal 0.000000 -0.995185 -0.098015
outer loop
vertex 5.500000 0.300000 1.500000
vertex 5.500000 0.298079 1.519509
vertex 4.000000 0.298079 1.519509
endloop
endfacet
facet normal 0.000000 -0.995185 -0.098015
outer loop
vertex 5.500000 0.300000 1.500000
vertex 4.000000 0.298079 1.519509
vertex 4.000000 0.300000 1.500000
endloop
endfacet
endsolid Exported from Blender-2.91.2
