solid inlet_n1
facet normal -0.000497 -0.633981 -0.773348
outer loop
vertex 2.778184 0.144443 1.416853
vertex 2.777716 0.143234 1.417845
vertex 2.774944 0.139171 1.421180
endloop
endfacet
facet normal -0.000136 -0.634246 -0.773132
outer loop
vertex 2.774944 0.139171 1.421180
vertex 2.771213 0.135609 1.424103
vertex 2.766667 0.132686 1.426502
endloop
endfacet
facet normal -0.000037 -0.634300 -0.773087
outer loop
vertex 2.766667 0.132686 1.426502
vertex 2.761481 0.130514 1.428284
vertex 2.756328 0.129289 1.429289
endloop
endfacet
facet normal 0.000577 -0.775549 -0.631287
outer loop
vertex 2.756328 0.129289 1.429289
vertex 2.755853 0.129192 1.429408
vertex 2.750000 0.128801 1.429885
endloop
endfacet
facet normal -0.000577 -0.775552 -0.631284
outer loop
vertex 2.750000 0.128801 1.429885
vertex 2.744147 0.129192 1.429408
vertex 2.743672 0.129289 1.429289
endloop
endfacet
facet normal 0.000000 -0.634344 -0.773051
outer loop
vertex 2.743672 0.129289 1.429289
vertex 2.738519 0.130514 1.428284
vertex 2.733333 0.132686 1.426502
endloop
endfacet
facet normal 0.000136 -0.634246 -0.773132
outer loop
vertex 2.733333 0.132686 1.426502
vertex 2.728787 0.135609 1.424103
vertex 2.725056 0.139171 1.421180
endloop
endfacet
facet normal 0.000746 -0.633684 -0.773592
outer loop
vertex 2.725056 0.139171 1.421180
vertex 2.722284 0.143234 1.417845
vertex 2.721816 0.144443 1.416853
endloop
endfacet
facet normal 0.000000 -0.471471 -0.881881
outer loop
vertex 2.721816 0.144443 1.416853
vertex 2.720577 0.148048 1.414926
vertex 2.720000 0.153212 1.412166
endloop
endfacet
facet normal 0.001431 -0.471574 -0.881825
outer loop
vertex 2.720000 0.153212 1.412166
vertex 2.720577 0.158376 1.409405
vertex 2.721730 0.161732 1.407612
endloop
endfacet
facet normal 0.000000 -0.290326 -0.956928
outer loop
vertex 2.721730 0.161732 1.407612
vertex 2.722284 0.163525 1.407068
vertex 2.725056 0.168622 1.405522
endloop
endfacet
facet normal 0.000000 -0.290234 -0.956956
outer loop
vertex 2.725056 0.168622 1.405522
vertex 2.728787 0.173089 1.404167
vertex 2.733333 0.176755 1.403055
endloop
endfacet
facet normal 0.000612 -0.291933 -0.956439
outer loop
vertex 2.733333 0.176755 1.403055
vertex 2.738519 0.179479 1.402228
vertex 2.741915 0.180491 1.401922
endloop
endfacet
facet normal 0.000000 -0.098126 -0.995174
outer loop
vertex 2.741915 0.180491 1.401922
vertex 2.744147 0.181231 1.401849
vertex 2.750000 0.181860 1.401787
endloop
endfacet
facet normal 0.000000 -0.098126 -0.995174
outer loop
vertex 2.750000 0.181860 1.401787
vertex 2.755853 0.181231 1.401849
vertex 2.758085 0.180491 1.401922
endloop
endfacet
facet normal -0.000556 -0.291958 -0.956431
outer loop
vertex 2.758085 0.180491 1.401922
vertex 2.761481 0.179479 1.402228
vertex 2.766667 0.176755 1.403055
endloop
endfacet
facet normal 0.000000 -0.290234 -0.956956
outer loop
vertex 2.766667 0.176755 1.403055
vertex 2.771213 0.173089 1.404167
vertex 2.774944 0.168622 1.405522
endloop
endfacet
facet normal 0.000000 -0.290419 -0.956900
outer loop
vertex 2.774944 0.168622 1.405522
vertex 2.777716 0.163525 1.407068
vertex 2.778270 0.161732 1.407612
endloop
endfacet
facet normal -0.001431 -0.471575 -0.881825
outer loop
vertex 2.778270 0.161732 1.407612
vertex 2.779423 0.158376 1.409405
vertex 2.780000 0.153212 1.412166
endloop
endfacet
facet normal 0.000000 -0.471471 -0.881881
outer loop
vertex 2.780000 0.153212 1.412166
vertex 2.779423 0.148048 1.414926
vertex 2.778184 0.144443 1.416853
endloop
endfacet
facet normal 0.000064 -0.634500 -0.772923
outer loop
vertex 2.778184 0.144443 1.416853
vertex 2.774944 0.139171 1.421180
vertex 2.766667 0.132686 1.426502
endloop
endfacet
facet normal -0.033163 -0.571774 -0.819741
outer loop
vertex 2.766667 0.132686 1.426502
vertex 2.756328 0.129289 1.429289
vertex 2.750000 0.128801 1.429885
endloop
endfacet
facet normal 0.033180 -0.571771 -0.819742
outer loop
vertex 2.750000 0.128801 1.429885
vertex 2.743672 0.129289 1.429289
vertex 2.733333 0.132686 1.426502
endloop
endfacet
facet normal -0.000064 -0.634502 -0.772921
outer loop
vertex 2.733333 0.132686 1.426502
vertex 2.725056 0.139171 1.421180
vertex 2.721816 0.144443 1.416853
endloop
endfacet
facet normal -0.000054 -0.471383 -0.881929
outer loop
vertex 2.721816 0.144443 1.416853
vertex 2.720000 0.153212 1.412166
vertex 2.721730 0.161732 1.407612
endloop
endfacet
facet normal 0.000000 -0.290204 -0.956965
outer loop
vertex 2.721730 0.161732 1.407612
vertex 2.725056 0.168622 1.405522
vertex 2.733333 0.176755 1.403055
endloop
endfacet
facet normal 0.051978 -0.397214 -0.916253
outer loop
vertex 2.733333 0.176755 1.403055
vertex 2.741915 0.180491 1.401922
vertex 2.750000 0.181860 1.401787
endloop
endfacet
facet normal -0.051966 -0.397214 -0.916253
outer loop
vertex 2.750000 0.181860 1.401787
vertex 2.758085 0.180491 1.401922
vertex 2.766667 0.176755 1.403055
endloop
endfacet
facet normal 0.000000 -0.290204 -0.956965
outer loop
vertex 2.766667 0.176755 1.403055
vertex 2.774944 0.168622 1.405522
vertex 2.778270 0.161732 1.407612
endloop
endfacet
facet normal 0.000054 -0.471383 -0.881929
outer loop
vertex 2.778270 0.161732 1.407612
vertex 2.780000 0.153212 1.412166
vertex 2.778184 0.144443 1.416853
endloop
endfacet
facet normal -0.011773 -0.627424 -0.778588
outer loop
vertex 2.778184 0.144443 1.416853
vertex 2.766667 0.132686 1.426502
vertex 2.750000 0.128801 1.429885
endloop
endfacet
facet normal 0.011778 -0.627431 -0.778583
outer loop
vertex 2.750000 0.128801 1.429885
vertex 2.733333 0.132686 1.426502
vertex 2.721816 0.144443 1.416853
endloop
endfacet
facet normal 0.253832 -0.454967 -0.853566
outer loop
vertex 2.721816 0.144443 1.416853
vertex 2.721730 0.161732 1.407612
vertex 2.733333 0.176755 1.403055
endloop
endfacet
facet normal 0.000000 -0.241043 -0.970514
outer loop
vertex 2.733333 0.176755 1.403055
vertex 2.750000 0.181860 1.401787
vertex 2.766667 0.176755 1.403055
endloop
endfacet
facet normal -0.253832 -0.454967 -0.853566
outer loop
vertex 2.766667 0.176755 1.403055
vertex 2.778270 0.161732 1.407612
vertex 2.778184 0.144443 1.416853
endloop
endfacet
facet normal 0.000000 -0.640104 -0.768289
outer loop
vertex 2.778184 0.144443 1.416853
vertex 2.750000 0.128801 1.429885
vertex 2.721816 0.144443 1.416853
endloop
endfacet
facet normal 0.000000 -0.392717 -0.919660
outer loop
vertex 2.721816 0.144443 1.416853
vertex 2.733333 0.176755 1.403055
vertex 2.766667 0.176755 1.403055
endloop
endfacet
facet normal 0.000000 -0.392718 -0.919659
outer loop
vertex 2.721816 0.144443 1.416853
vertex 2.766667 0.176755 1.403055
vertex 2.778184 0.144443 1.416853
endloop
endfacet
endsolid inlet_n1
