solid inlet_s5
facet normal 0.000000 -0.772753 0.634706
outer loop
vertex 4.744147 0.129192 1.570591
vertex 4.750000 0.128801 1.570115
vertex 4.755853 0.129192 1.570591
endloop
endfacet
facet normal -0.291705 0.821706 0.489600
outer loop
vertex 4.755853 0.129192 1.570591
vertex 4.756329 0.129289 1.570711
vertex 4.761480 0.130514 1.571716
endloop
endfacet
facet normal 0.000272 -0.634755 0.772714
outer loop
vertex 4.761480 0.130514 1.571716
vertex 4.766667 0.132686 1.573498
vertex 4.771214 0.135609 1.575897
endloop
endfacet
facet normal 0.000409 -0.634968 0.772538
outer loop
vertex 4.771214 0.135609 1.575897
vertex 4.774944 0.139171 1.578820
vertex 4.777717 0.143234 1.582155
endloop
endfacet
facet normal -0.956809 0.254387 0.140726
outer loop
vertex 4.777717 0.143234 1.582155
vertex 4.778184 0.144443 1.583147
vertex 4.779424 0.148048 1.585074
endloop
endfacet
facet normal 0.000000 -0.471572 0.881827
outer loop
vertex 4.779424 0.148048 1.585074
vertex 4.780000 0.153212 1.587834
vertex 4.779424 0.158376 1.590594
endloop
endfacet
facet normal 0.000000 -0.290620 0.956839
outer loop
vertex 4.778270 0.161732 1.592388
vertex 4.777717 0.163525 1.592932
vertex 4.774944 0.168622 1.594478
endloop
endfacet
facet normal 0.000482 -0.471351 0.881946
outer loop
vertex 4.779424 0.148048 1.585074
vertex 4.779424 0.158376 1.590594
vertex 4.778270 0.161732 1.592388
endloop
endfacet
facet normal -0.364804 -0.384622 0.847929
outer loop
vertex 4.771214 0.135609 1.575897
vertex 4.777717 0.143234 1.582155
vertex 4.779424 0.148048 1.585074
endloop
endfacet
facet normal -0.010239 -0.622652 0.782432
outer loop
vertex 4.755853 0.129192 1.570591
vertex 4.761480 0.130514 1.571716
vertex 4.771214 0.135609 1.575897
endloop
endfacet
facet normal 0.000000 -0.777804 0.628507
outer loop
vertex 4.743671 0.129289 1.570711
vertex 4.744147 0.129192 1.570591
vertex 4.755853 0.129192 1.570591
endloop
endfacet
facet normal 0.000037 -0.634383 0.773019
outer loop
vertex 4.733333 0.132686 1.573498
vertex 4.738520 0.130514 1.571716
vertex 4.743671 0.129289 1.570711
endloop
endfacet
facet normal 0.000136 -0.634367 0.773032
outer loop
vertex 4.725056 0.139171 1.578820
vertex 4.728787 0.135609 1.575897
vertex 4.733333 0.132686 1.573498
endloop
endfacet
facet normal 0.000494 -0.635798 0.771855
outer loop
vertex 4.721816 0.144443 1.583147
vertex 4.722283 0.143234 1.582155
vertex 4.725056 0.139171 1.578820
endloop
endfacet
facet normal 0.000190 -0.471988 0.881605
outer loop
vertex 4.720000 0.153212 1.587834
vertex 4.720576 0.148048 1.585074
vertex 4.721816 0.144443 1.583147
endloop
endfacet
facet normal -0.000815 -0.472038 0.881578
outer loop
vertex 4.721730 0.161732 1.592388
vertex 4.720576 0.158376 1.590594
vertex 4.720000 0.153212 1.587834
endloop
endfacet
facet normal -0.000413 -0.290432 0.956896
outer loop
vertex 4.725056 0.168622 1.594478
vertex 4.722283 0.163525 1.592932
vertex 4.721730 0.161732 1.592388
endloop
endfacet
facet normal 0.000000 -0.290074 0.957004
outer loop
vertex 4.733333 0.176755 1.596945
vertex 4.728787 0.173089 1.595833
vertex 4.725056 0.168622 1.594478
endloop
endfacet
facet normal -0.000223 -0.289998 0.957027
outer loop
vertex 4.741916 0.180491 1.598078
vertex 4.738520 0.179479 1.597771
vertex 4.733333 0.176755 1.596945
endloop
endfacet
facet normal -0.000079 -0.098160 0.995171
outer loop
vertex 4.750000 0.181860 1.598213
vertex 4.744147 0.181231 1.598151
vertex 4.741916 0.180491 1.598078
endloop
endfacet
facet normal 0.000079 -0.098156 0.995171
outer loop
vertex 4.758084 0.180491 1.598078
vertex 4.755853 0.181231 1.598151
vertex 4.750000 0.181860 1.598213
endloop
endfacet
facet normal 0.000167 -0.290049 0.957012
outer loop
vertex 4.766667 0.176755 1.596945
vertex 4.761480 0.179479 1.597771
vertex 4.758084 0.180491 1.598078
endloop
endfacet
facet normal 0.000000 -0.290130 0.956987
outer loop
vertex 4.774944 0.168622 1.594478
vertex 4.771214 0.173089 1.595833
vertex 4.766667 0.176755 1.596945
endloop
endfacet
facet normal -0.448153 -0.450489 0.772152
outer loop
vertex 4.779424 0.148048 1.585074
vertex 4.778270 0.161732 1.592388
vertex 4.774944 0.168622 1.594478
endloop
endfacet
facet normal -0.041985 -0.575083 0.817017
outer loop
vertex 4.755853 0.129192 1.570591
vertex 4.771214 0.135609 1.575897
vertex 4.779424 0.148048 1.585074
endloop
endfacet
facet normal 0.002653 -0.629452 0.777035
outer loop
vertex 4.733333 0.132686 1.573498
vertex 4.743671 0.129289 1.570711
vertex 4.755853 0.129192 1.570591
endloop
endfacet
facet normal -0.000064 -0.634242 0.773134
outer loop
vertex 4.721816 0.144443 1.583147
vertex 4.725056 0.139171 1.578820
vertex 4.733333 0.132686 1.573498
endloop
endfacet
facet normal -0.000054 -0.471184 0.882035
outer loop
vertex 4.721730 0.161732 1.592388
vertex 4.720000 0.153212 1.587834
vertex 4.721816 0.144443 1.583147
endloop
endfacet
facet normal 0.000000 -0.290221 0.956960
outer loop
vertex 4.733333 0.176755 1.596945
vertex 4.725056 0.168622 1.594478
vertex 4.721730 0.161732 1.592388
endloop
endfacet
facet normal 0.051981 -0.397304 0.916214
outer loop
vertex 4.750000 0.181860 1.598213
vertex 4.741916 0.180491 1.598078
vertex 4.733333 0.176755 1.596945
endloop
endfacet
facet normal -0.052004 -0.397313 0.916208
outer loop
vertex 4.766667 0.176755 1.596945
vertex 4.758084 0.180491 1.598078
vertex 4.750000 0.181860 1.598213
endloop
endfacet
facet normal -0.169483 -0.440023 0.881847
outer loop
vertex 4.779424 0.148048 1.585074
vertex 4.774944 0.168622 1.594478
vertex 4.766667 0.176755 1.596945
endloop
endfacet
facet normal 0.006552 -0.614259 0.789077
outer loop
vertex 4.733333 0.132686 1.573498
vertex 4.755853 0.129192 1.570591
vertex 4.779424 0.148048 1.585074
endloop
endfacet
facet normal 0.250874 -0.455358 0.854231
outer loop
vertex 4.721730 0.161732 1.592388
vertex 4.721816 0.144443 1.583147
vertex 4.733333 0.132686 1.573498
endloop
endfacet
facet normal 0.021004 -0.305045 0.952106
outer loop
vertex 4.750000 0.181860 1.598213
vertex 4.733333 0.176755 1.596945
vertex 4.721730 0.161732 1.592388
endloop
endfacet
facet normal -0.053534 -0.401798 0.914162
outer loop
vertex 4.779424 0.148048 1.585074
vertex 4.766667 0.176755 1.596945
vertex 4.750000 0.181860 1.598213
endloop
endfacet
facet normal -0.025302 -0.552102 0.833392
outer loop
vertex 4.721730 0.161732 1.592388
vertex 4.733333 0.132686 1.573498
vertex 4.779424 0.148048 1.585074
endloop
endfacet
facet normal 0.041117 -0.330614 0.942870
outer loop
vertex 4.779424 0.148048 1.585074
vertex 4.750000 0.181860 1.598213
vertex 4.721730 0.161732 1.592388
endloop
endfacet
endsolid inlet_s5
