solid inlet_s2
facet normal 0.000269 -0.290490 0.956878
outer loop
vertex 3.238520 0.179479 1.597771
vertex 3.233333 0.176755 1.596945
vertex 3.228787 0.173089 1.595833
endloop
endfacet
facet normal -0.000537 -0.290152 0.956980
outer loop
vertex 3.228787 0.173089 1.595833
vertex 3.225056 0.168622 1.594478
vertex 3.222284 0.163525 1.592932
endloop
endfacet
facet normal 0.001227 -0.471417 0.881910
outer loop
vertex 3.221730 0.161732 1.592388
vertex 3.220577 0.158376 1.590595
vertex 3.220000 0.153212 1.587834
endloop
endfacet
facet normal 0.000420 -0.290218 0.956960
outer loop
vertex 3.228787 0.173089 1.595833
vertex 3.222284 0.163525 1.592932
vertex 3.221730 0.161732 1.592388
endloop
endfacet
facet normal -0.000150 -0.290215 0.956961
outer loop
vertex 3.241916 0.180491 1.598078
vertex 3.238520 0.179479 1.597771
vertex 3.228787 0.173089 1.595833
endloop
endfacet
facet normal -0.000079 -0.098128 0.995174
outer loop
vertex 3.250000 0.181860 1.598213
vertex 3.244147 0.181231 1.598151
vertex 3.241916 0.180491 1.598078
endloop
endfacet
facet normal 0.000079 -0.098130 0.995174
outer loop
vertex 3.258084 0.180491 1.598078
vertex 3.255853 0.181231 1.598151
vertex 3.250000 0.181860 1.598213
endloop
endfacet
facet normal 0.000167 -0.290100 0.956996
outer loop
vertex 3.266667 0.176755 1.596945
vertex 3.261481 0.179479 1.597771
vertex 3.258084 0.180491 1.598078
endloop
endfacet
facet normal 0.000000 -0.290111 0.956993
outer loop
vertex 3.274944 0.168622 1.594478
vertex 3.271213 0.173089 1.595833
vertex 3.266667 0.176755 1.596945
endloop
endfacet
facet normal 0.000000 -0.290326 0.956928
outer loop
vertex 3.278270 0.161732 1.592388
vertex 3.277716 0.163525 1.592932
vertex 3.274944 0.168622 1.594478
endloop
endfacet
facet normal -0.001431 -0.471574 0.881825
outer loop
vertex 3.280000 0.153212 1.587834
vertex 3.279423 0.158376 1.590595
vertex 3.278270 0.161732 1.592388
endloop
endfacet
facet normal 0.000000 -0.471324 0.881960
outer loop
vertex 3.278184 0.144443 1.583147
vertex 3.279423 0.148048 1.585074
vertex 3.280000 0.153212 1.587834
endloop
endfacet
facet normal -0.000746 -0.633684 0.773592
outer loop
vertex 3.274944 0.139171 1.578820
vertex 3.277716 0.143234 1.582155
vertex 3.278184 0.144443 1.583147
endloop
endfacet
facet normal -0.000136 -0.634408 0.772998
outer loop
vertex 3.266667 0.132686 1.573498
vertex 3.271213 0.135609 1.575897
vertex 3.274944 0.139171 1.578820
endloop
endfacet
facet normal 0.000000 -0.634344 0.773051
outer loop
vertex 3.256328 0.129289 1.570711
vertex 3.261481 0.130514 1.571716
vertex 3.266667 0.132686 1.573498
endloop
endfacet
facet normal 0.000577 -0.775552 0.631284
outer loop
vertex 3.250000 0.128801 1.570115
vertex 3.255853 0.129192 1.570592
vertex 3.256328 0.129289 1.570711
endloop
endfacet
facet normal -0.000577 -0.775549 0.631287
outer loop
vertex 3.243672 0.129289 1.570711
vertex 3.244147 0.129192 1.570592
vertex 3.250000 0.128801 1.570115
endloop
endfacet
facet normal 0.000037 -0.634388 0.773014
outer loop
vertex 3.233333 0.132686 1.573498
vertex 3.238519 0.130514 1.571716
vertex 3.243672 0.129289 1.570711
endloop
endfacet
facet normal 0.000136 -0.634408 0.772998
outer loop
vertex 3.225056 0.139171 1.578820
vertex 3.228787 0.135609 1.575897
vertex 3.233333 0.132686 1.573498
endloop
endfacet
facet normal 0.000497 -0.633981 0.773348
outer loop
vertex 3.221816 0.144443 1.583147
vertex 3.222284 0.143234 1.582155
vertex 3.225056 0.139171 1.578820
endloop
endfacet
facet normal 0.000190 -0.471324 0.881960
outer loop
vertex 3.220000 0.153212 1.587834
vertex 3.220577 0.148048 1.585074
vertex 3.221816 0.144443 1.583147
endloop
endfacet
facet normal 0.420947 -0.492588 0.761683
outer loop
vertex 3.228787 0.173089 1.595833
vertex 3.221730 0.161732 1.592388
vertex 3.220000 0.153212 1.587834
endloop
endfacet
facet normal 0.046067 -0.363924 0.930289
outer loop
vertex 3.250000 0.181860 1.598213
vertex 3.241916 0.180491 1.598078
vertex 3.228787 0.173089 1.595833
endloop
endfacet
facet normal -0.052002 -0.397278 0.916224
outer loop
vertex 3.266667 0.176755 1.596945
vertex 3.258084 0.180491 1.598078
vertex 3.250000 0.181860 1.598213
endloop
endfacet
facet normal 0.000000 -0.290204 0.956965
outer loop
vertex 3.278270 0.161732 1.592388
vertex 3.274944 0.168622 1.594478
vertex 3.266667 0.176755 1.596945
endloop
endfacet
facet normal 0.000054 -0.471383 0.881929
outer loop
vertex 3.278184 0.144443 1.583147
vertex 3.280000 0.153212 1.587834
vertex 3.278270 0.161732 1.592388
endloop
endfacet
facet normal 0.000064 -0.634464 0.772953
outer loop
vertex 3.266667 0.132686 1.573498
vertex 3.274944 0.139171 1.578820
vertex 3.278184 0.144443 1.583147
endloop
endfacet
facet normal -0.033181 -0.571739 0.819764
outer loop
vertex 3.250000 0.128801 1.570115
vertex 3.256328 0.129289 1.570711
vertex 3.266667 0.132686 1.573498
endloop
endfacet
facet normal 0.033164 -0.571743 0.819763
outer loop
vertex 3.233333 0.132686 1.573498
vertex 3.243672 0.129289 1.570711
vertex 3.250000 0.128801 1.570115
endloop
endfacet
facet normal -0.000064 -0.634424 0.772985
outer loop
vertex 3.221816 0.144443 1.583147
vertex 3.225056 0.139171 1.578820
vertex 3.233333 0.132686 1.573498
endloop
endfacet
facet normal 0.179561 -0.434540 0.882572
outer loop
vertex 3.228787 0.173089 1.595833
vertex 3.220000 0.153212 1.587834
vertex 3.221816 0.144443 1.583147
endloop
endfacet
facet normal -0.003902 -0.253053 0.967445
outer loop
vertex 3.266667 0.176755 1.596945
vertex 3.250000 0.181860 1.598213
vertex 3.228787 0.173089 1.595833
endloop
endfacet
facet normal -0.253832 -0.454967 0.853566
outer loop
vertex 3.278184 0.144443 1.583147
vertex 3.278270 0.161732 1.592388
vertex 3.266667 0.176755 1.596945
endloop
endfacet
facet normal -0.011778 -0.627431 0.778583
outer loop
vertex 3.250000 0.128801 1.570115
vertex 3.266667 0.132686 1.573498
vertex 3.278184 0.144443 1.583147
endloop
endfacet
facet normal 0.011773 -0.627424 0.778588
outer loop
vertex 3.221816 0.144443 1.583147
vertex 3.233333 0.132686 1.573498
vertex 3.250000 0.128801 1.570115
endloop
endfacet
facet normal 0.012624 -0.407458 0.913137
outer loop
vertex 3.266667 0.176755 1.596945
vertex 3.228787 0.173089 1.595833
vertex 3.221816 0.144443 1.583147
endloop
endfacet
facet normal -0.166358 -0.436807 0.884039
outer loop
vertex 3.250000 0.128801 1.570115
vertex 3.278184 0.144443 1.583147
vertex 3.266667 0.176755 1.596945
endloop
endfacet
facet normal 0.108350 -0.513812 0.851033
outer loop
vertex 3.221816 0.144443 1.583147
vertex 3.250000 0.128801 1.570115
vertex 3.266667 0.176755 1.596945
endloop
endfacet
endsolid inlet_s2
