solid inlet_n3
facet normal -0.291638 0.817640 -0.496399
outer loop
vertex 3.761480 0.130514 1.428284
vertex 3.756328 0.129289 1.429289
vertex 3.755853 0.129192 1.429408
endloop
endfacet
facet normal 0.000000 -0.773408 -0.633908
outer loop
vertex 3.755853 0.129192 1.429408
vertex 3.750000 0.128801 1.429885
vertex 3.744147 0.129192 1.429408
endloop
endfacet
facet normal 0.290949 0.818031 -0.496160
outer loop
vertex 3.744147 0.129192 1.429408
vertex 3.743672 0.129289 1.429289
vertex 3.738519 0.130514 1.428284
endloop
endfacet
facet normal -0.000272 -0.634684 -0.772772
outer loop
vertex 3.738519 0.130514 1.428284
vertex 3.733333 0.132686 1.426502
vertex 3.728787 0.135609 1.424103
endloop
endfacet
facet normal -0.000409 -0.634421 -0.772988
outer loop
vertex 3.728787 0.135609 1.424103
vertex 3.725056 0.139171 1.421180
vertex 3.722284 0.143234 1.417845
endloop
endfacet
facet normal 0.956727 0.252222 -0.145112
outer loop
vertex 3.722284 0.143234 1.417845
vertex 3.721816 0.144443 1.416853
vertex 3.720577 0.148048 1.414926
endloop
endfacet
facet normal -0.000689 -0.471181 -0.882036
outer loop
vertex 3.720577 0.148048 1.414926
vertex 3.720000 0.153212 1.412166
vertex 3.720577 0.158376 1.409405
endloop
endfacet
facet normal 0.000000 -0.290326 -0.956928
outer loop
vertex 3.721730 0.161732 1.407612
vertex 3.722284 0.163525 1.407068
vertex 3.725056 0.168622 1.405522
endloop
endfacet
facet normal 0.000483 -0.471537 -0.881846
outer loop
vertex 3.720577 0.148048 1.414926
vertex 3.720577 0.158376 1.409405
vertex 3.721730 0.161732 1.407612
endloop
endfacet
facet normal 0.364782 -0.384859 -0.847831
outer loop
vertex 3.728787 0.135609 1.424103
vertex 3.722284 0.143234 1.417845
vertex 3.720577 0.148048 1.414926
endloop
endfacet
facet normal 0.009861 -0.622966 -0.782187
outer loop
vertex 3.744147 0.129192 1.429408
vertex 3.738519 0.130514 1.428284
vertex 3.728787 0.135609 1.424103
endloop
endfacet
facet normal 0.000000 -0.647701 -0.761895
outer loop
vertex 3.761480 0.130514 1.428284
vertex 3.755853 0.129192 1.429408
vertex 3.744147 0.129192 1.429408
endloop
endfacet
facet normal 0.000272 -0.634809 -0.772669
outer loop
vertex 3.771213 0.135609 1.424103
vertex 3.766667 0.132686 1.426502
vertex 3.761480 0.130514 1.428284
endloop
endfacet
facet normal 0.000409 -0.634421 -0.772988
outer loop
vertex 3.777716 0.143234 1.417845
vertex 3.774944 0.139171 1.421180
vertex 3.771213 0.135609 1.424103
endloop
endfacet
facet normal -0.956824 0.252341 -0.144265
outer loop
vertex 3.779424 0.148048 1.414926
vertex 3.778184 0.144443 1.416853
vertex 3.777716 0.143234 1.417845
endloop
endfacet
facet normal 0.000690 -0.471572 -0.881827
outer loop
vertex 3.779424 0.158376 1.409405
vertex 3.780000 0.153212 1.412166
vertex 3.779424 0.148048 1.414926
endloop
endfacet
facet normal 0.000000 -0.290134 -0.956986
outer loop
vertex 3.774944 0.168622 1.405522
vertex 3.777716 0.163525 1.407068
vertex 3.778270 0.161732 1.407612
endloop
endfacet
facet normal -0.000414 -0.471395 -0.881922
outer loop
vertex 3.778270 0.161732 1.407612
vertex 3.779424 0.158376 1.409405
vertex 3.779424 0.148048 1.414926
endloop
endfacet
facet normal -0.364933 -0.384459 -0.847948
outer loop
vertex 3.779424 0.148048 1.414926
vertex 3.777716 0.143234 1.417845
vertex 3.771213 0.135609 1.424103
endloop
endfacet
facet normal -0.002052 -0.632017 -0.774952
outer loop
vertex 3.771213 0.135609 1.424103
vertex 3.761480 0.130514 1.428284
vertex 3.744147 0.129192 1.429408
endloop
endfacet
facet normal 0.041922 -0.575077 -0.817024
outer loop
vertex 3.744147 0.129192 1.429408
vertex 3.728787 0.135609 1.424103
vertex 3.720577 0.148048 1.414926
endloop
endfacet
facet normal 0.448017 -0.450448 -0.772255
outer loop
vertex 3.720577 0.148048 1.414926
vertex 3.721730 0.161732 1.407612
vertex 3.725056 0.168622 1.405522
endloop
endfacet
facet normal 0.000000 -0.290111 -0.956993
outer loop
vertex 3.725056 0.168622 1.405522
vertex 3.728787 0.173089 1.404167
vertex 3.733333 0.176755 1.403055
endloop
endfacet
facet normal -0.000056 -0.290816 -0.956779
outer loop
vertex 3.733333 0.176755 1.403055
vertex 3.738520 0.179479 1.402228
vertex 3.741915 0.180491 1.401921
endloop
endfacet
facet normal -0.000238 -0.096234 -0.995359
outer loop
vertex 3.741915 0.180491 1.401921
vertex 3.744147 0.181231 1.401849
vertex 3.750000 0.181860 1.401787
endloop
endfacet
facet normal 0.000238 -0.096234 -0.995359
outer loop
vertex 3.750000 0.181860 1.401787
vertex 3.755853 0.181231 1.401849
vertex 3.758085 0.180491 1.401921
endloop
endfacet
facet normal 0.000111 -0.290867 -0.956764
outer loop
vertex 3.758085 0.180491 1.401921
vertex 3.761480 0.179479 1.402228
vertex 3.766667 0.176755 1.403055
endloop
endfacet
facet normal 0.000000 -0.290111 -0.956993
outer loop
vertex 3.766667 0.176755 1.403055
vertex 3.771213 0.173089 1.404167
vertex 3.774944 0.168622 1.405522
endloop
endfacet
facet normal -0.448099 -0.450473 -0.772193
outer loop
vertex 3.774944 0.168622 1.405522
vertex 3.778270 0.161732 1.407612
vertex 3.779424 0.148048 1.414926
endloop
endfacet
facet normal -0.020274 -0.584860 -0.810881
outer loop
vertex 3.779424 0.148048 1.414926
vertex 3.771213 0.135609 1.424103
vertex 3.744147 0.129192 1.429408
endloop
endfacet
facet normal 0.185946 -0.441674 -0.877695
outer loop
vertex 3.744147 0.129192 1.429408
vertex 3.720577 0.148048 1.414926
vertex 3.725056 0.168622 1.405522
endloop
endfacet
facet normal -0.000138 -0.290170 -0.956975
outer loop
vertex 3.725056 0.168622 1.405522
vertex 3.733333 0.176755 1.403055
vertex 3.741915 0.180491 1.401921
endloop
endfacet
facet normal 0.000000 -0.097414 -0.995244
outer loop
vertex 3.741915 0.180491 1.401921
vertex 3.750000 0.181860 1.401787
vertex 3.758085 0.180491 1.401921
endloop
endfacet
facet normal 0.000138 -0.290170 -0.956975
outer loop
vertex 3.758085 0.180491 1.401921
vertex 3.766667 0.176755 1.403055
vertex 3.774944 0.168622 1.405522
endloop
endfacet
facet normal -0.132536 -0.435783 -0.890240
outer loop
vertex 3.774944 0.168622 1.405522
vertex 3.779424 0.148048 1.414926
vertex 3.744147 0.129192 1.429408
endloop
endfacet
facet normal 0.138984 -0.463001 -0.875394
outer loop
vertex 3.744147 0.129192 1.429408
vertex 3.725056 0.168622 1.405522
vertex 3.741915 0.180491 1.401921
endloop
endfacet
facet normal 0.000000 -0.290318 -0.956930
outer loop
vertex 3.741915 0.180491 1.401921
vertex 3.758085 0.180491 1.401921
vertex 3.774944 0.168622 1.405522
endloop
endfacet
facet normal -0.074467 -0.473494 -0.877644
outer loop
vertex 3.744147 0.129192 1.429408
vertex 3.741915 0.180491 1.401921
vertex 3.774944 0.168622 1.405522
endloop
endfacet
endsolid inlet_n3
