solid inlet_s1
facet normal -0.956727 0.252222 0.145112
outer loop
vertex 2.777716 0.143234 1.582155
vertex 2.778184 0.144443 1.583147
vertex 2.779423 0.148048 1.585074
endloop
endfacet
facet normal 0.000827 -0.471503 0.881864
outer loop
vertex 2.779423 0.148048 1.585074
vertex 2.780000 0.153212 1.587834
vertex 2.779423 0.158376 1.590595
endloop
endfacet
facet normal 0.000000 -0.290326 0.956928
outer loop
vertex 2.778270 0.161732 1.592388
vertex 2.777716 0.163525 1.592932
vertex 2.774944 0.168622 1.594478
endloop
endfacet
facet normal -0.000621 -0.471430 0.881903
outer loop
vertex 2.779423 0.148048 1.585074
vertex 2.779423 0.158376 1.590595
vertex 2.778270 0.161732 1.592388
endloop
endfacet
facet normal -0.522700 -0.298719 0.798469
outer loop
vertex 2.774944 0.139171 1.578820
vertex 2.777716 0.143234 1.582155
vertex 2.779423 0.148048 1.585074
endloop
endfacet
facet normal -0.000136 -0.634246 0.773132
outer loop
vertex 2.766667 0.132686 1.573498
vertex 2.771213 0.135609 1.575897
vertex 2.774944 0.139171 1.578820
endloop
endfacet
facet normal 0.000000 -0.634344 0.773051
outer loop
vertex 2.756328 0.129289 1.570711
vertex 2.761481 0.130514 1.571716
vertex 2.766667 0.132686 1.573498
endloop
endfacet
facet normal 0.000577 -0.775552 0.631284
outer loop
vertex 2.750000 0.128801 1.570115
vertex 2.755853 0.129192 1.570592
vertex 2.756328 0.129289 1.570711
endloop
endfacet
facet normal -0.000577 -0.775549 0.631287
outer loop
vertex 2.743672 0.129289 1.570711
vertex 2.744147 0.129192 1.570592
vertex 2.750000 0.128801 1.570115
endloop
endfacet
facet normal 0.000037 -0.634300 0.773087
outer loop
vertex 2.733333 0.132686 1.573498
vertex 2.738519 0.130514 1.571716
vertex 2.743672 0.129289 1.570711
endloop
endfacet
facet normal 0.000136 -0.634246 0.773132
outer loop
vertex 2.725056 0.139171 1.578820
vertex 2.728787 0.135609 1.575897
vertex 2.733333 0.132686 1.573498
endloop
endfacet
facet normal 0.000497 -0.633981 0.773348
outer loop
vertex 2.721816 0.144443 1.583147
vertex 2.722284 0.143234 1.582155
vertex 2.725056 0.139171 1.578820
endloop
endfacet
facet normal 0.000190 -0.471471 0.881881
outer loop
vertex 2.720000 0.153212 1.587834
vertex 2.720577 0.148048 1.585074
vertex 2.721816 0.144443 1.583147
endloop
endfacet
facet normal 0.001226 -0.471576 0.881825
outer loop
vertex 2.721730 0.161732 1.592388
vertex 2.720577 0.158376 1.590595
vertex 2.720000 0.153212 1.587834
endloop
endfacet
facet normal -0.000415 -0.290419 0.956899
outer loop
vertex 2.725056 0.168622 1.594478
vertex 2.722284 0.163525 1.592932
vertex 2.721730 0.161732 1.592388
endloop
endfacet
facet normal 0.000000 -0.290234 0.956956
outer loop
vertex 2.733333 0.176755 1.596945
vertex 2.728787 0.173089 1.595833
vertex 2.725056 0.168622 1.594478
endloop
endfacet
facet normal 0.000667 -0.291882 0.956454
outer loop
vertex 2.741916 0.180491 1.598078
vertex 2.738519 0.179479 1.597772
vertex 2.733333 0.176755 1.596945
endloop
endfacet
facet normal -0.000079 -0.098128 0.995174
outer loop
vertex 2.750000 0.181860 1.598213
vertex 2.744147 0.181231 1.598151
vertex 2.741916 0.180491 1.598078
endloop
endfacet
facet normal 0.000079 -0.098130 0.995174
outer loop
vertex 2.758084 0.180491 1.598078
vertex 2.755853 0.181231 1.598151
vertex 2.750000 0.181860 1.598213
endloop
endfacet
facet normal 0.000167 -0.290075 0.957004
outer loop
vertex 2.766667 0.176755 1.596945
vertex 2.761481 0.179479 1.597771
vertex 2.758084 0.180491 1.598078
endloop
endfacet
facet normal 0.000000 -0.290234 0.956956
outer loop
vertex 2.774944 0.168622 1.594478
vertex 2.771213 0.173089 1.595833
vertex 2.766667 0.176755 1.596945
endloop
endfacet
facet normal -0.448062 -0.450493 0.772202
outer loop
vertex 2.779423 0.148048 1.585074
vertex 2.778270 0.161732 1.592388
vertex 2.774944 0.168622 1.594478
endloop
endfacet
facet normal -0.126398 -0.527914 0.839840
outer loop
vertex 2.766667 0.132686 1.573498
vertex 2.774944 0.139171 1.578820
vertex 2.779423 0.148048 1.585074
endloop
endfacet
facet normal -0.033180 -0.571771 0.819742
outer loop
vertex 2.750000 0.128801 1.570115
vertex 2.756328 0.129289 1.570711
vertex 2.766667 0.132686 1.573498
endloop
endfacet
facet normal 0.033163 -0.571774 0.819741
outer loop
vertex 2.733333 0.132686 1.573498
vertex 2.743672 0.129289 1.570711
vertex 2.750000 0.128801 1.570115
endloop
endfacet
facet normal -0.000064 -0.634500 0.772923
outer loop
vertex 2.721816 0.144443 1.583147
vertex 2.725056 0.139171 1.578820
vertex 2.733333 0.132686 1.573498
endloop
endfacet
facet normal -0.000054 -0.471383 0.881929
outer loop
vertex 2.721730 0.161732 1.592388
vertex 2.720000 0.153212 1.587834
vertex 2.721816 0.144443 1.583147
endloop
endfacet
facet normal 0.000000 -0.290204 0.956965
outer loop
vertex 2.733333 0.176755 1.596945
vertex 2.725056 0.168622 1.594478
vertex 2.721730 0.161732 1.592388
endloop
endfacet
facet normal 0.051979 -0.397264 0.916231
outer loop
vertex 2.750000 0.181860 1.598213
vertex 2.741916 0.180491 1.598078
vertex 2.733333 0.176755 1.596945
endloop
endfacet
facet normal -0.052002 -0.397258 0.916232
outer loop
vertex 2.766667 0.176755 1.596945
vertex 2.758084 0.180491 1.598078
vertex 2.750000 0.181860 1.598213
endloop
endfacet
facet normal -0.169470 -0.439957 0.881883
outer loop
vertex 2.779423 0.148048 1.585074
vertex 2.774944 0.168622 1.594478
vertex 2.766667 0.176755 1.596945
endloop
endfacet
facet normal -0.027416 -0.586975 0.809141
outer loop
vertex 2.750000 0.128801 1.570115
vertex 2.766667 0.132686 1.573498
vertex 2.779423 0.148048 1.585074
endloop
endfacet
facet normal 0.011773 -0.627424 0.778588
outer loop
vertex 2.721816 0.144443 1.583147
vertex 2.733333 0.132686 1.573498
vertex 2.750000 0.128801 1.570115
endloop
endfacet
facet normal 0.253832 -0.454967 0.853566
outer loop
vertex 2.733333 0.176755 1.596945
vertex 2.721730 0.161732 1.592388
vertex 2.721816 0.144443 1.583147
endloop
endfacet
facet normal 0.000000 -0.241043 0.970514
outer loop
vertex 2.766667 0.176755 1.596945
vertex 2.750000 0.181860 1.598213
vertex 2.733333 0.176755 1.596945
endloop
endfacet
facet normal -0.162962 -0.438006 0.884078
outer loop
vertex 2.750000 0.128801 1.570115
vertex 2.779423 0.148048 1.585074
vertex 2.766667 0.176755 1.596945
endloop
endfacet
facet normal 0.166355 -0.436807 0.884039
outer loop
vertex 2.733333 0.176755 1.596945
vertex 2.721816 0.144443 1.583147
vertex 2.750000 0.128801 1.570115
endloop
endfacet
facet normal 0.000000 -0.488265 0.872696
outer loop
vertex 2.766667 0.176755 1.596945
vertex 2.733333 0.176755 1.596945
vertex 2.750000 0.128801 1.570115
endloop
endfacet
endsolid inlet_s1
