solid inlet_n2
facet normal -0.000238 -0.096234 -0.995359
outer loop
vertex 3.241915 0.180491 1.401921
vertex 3.244147 0.181231 1.401849
vertex 3.250000 0.181860 1.401787
endloop
endfacet
facet normal 0.000238 -0.096234 -0.995359
outer loop
vertex 3.250000 0.181860 1.401787
vertex 3.255853 0.181231 1.401849
vertex 3.258085 0.180491 1.401921
endloop
endfacet
facet normal 0.000111 -0.290838 -0.956772
outer loop
vertex 3.258085 0.180491 1.401921
vertex 3.261481 0.179479 1.402228
vertex 3.266667 0.176755 1.403055
endloop
endfacet
facet normal 0.000000 -0.290111 -0.956993
outer loop
vertex 3.266667 0.176755 1.403055
vertex 3.271213 0.173089 1.404167
vertex 3.274944 0.168622 1.405522
endloop
endfacet
facet normal 0.000000 -0.290419 -0.956900
outer loop
vertex 3.274944 0.168622 1.405522
vertex 3.277716 0.163525 1.407068
vertex 3.278270 0.161732 1.407612
endloop
endfacet
facet normal -0.001431 -0.471416 -0.881909
outer loop
vertex 3.278270 0.161732 1.407612
vertex 3.279423 0.158376 1.409405
vertex 3.280000 0.153212 1.412166
endloop
endfacet
facet normal 0.000000 -0.471324 -0.881960
outer loop
vertex 3.280000 0.153212 1.412166
vertex 3.279423 0.148048 1.414926
vertex 3.278184 0.144443 1.416853
endloop
endfacet
facet normal -0.000497 -0.633981 -0.773348
outer loop
vertex 3.278184 0.144443 1.416853
vertex 3.277716 0.143234 1.417845
vertex 3.274944 0.139171 1.421180
endloop
endfacet
facet normal -0.000136 -0.634408 -0.772998
outer loop
vertex 3.274944 0.139171 1.421180
vertex 3.271213 0.135609 1.424103
vertex 3.266667 0.132686 1.426502
endloop
endfacet
facet normal -0.000037 -0.634388 -0.773014
outer loop
vertex 3.266667 0.132686 1.426502
vertex 3.261481 0.130514 1.428284
vertex 3.256328 0.129289 1.429289
endloop
endfacet
facet normal 0.000577 -0.775549 -0.631287
outer loop
vertex 3.256328 0.129289 1.429289
vertex 3.255853 0.129192 1.429408
vertex 3.250000 0.128801 1.429885
endloop
endfacet
facet normal -0.000577 -0.775552 -0.631284
outer loop
vertex 3.250000 0.128801 1.429885
vertex 3.244147 0.129192 1.429408
vertex 3.243672 0.129289 1.429289
endloop
endfacet
facet normal 0.000000 -0.634344 -0.773051
outer loop
vertex 3.243672 0.129289 1.429289
vertex 3.238519 0.130514 1.428284
vertex 3.233333 0.132686 1.426502
endloop
endfacet
facet normal 0.000136 -0.634408 -0.772998
outer loop
vertex 3.233333 0.132686 1.426502
vertex 3.228787 0.135609 1.424103
vertex 3.225056 0.139171 1.421180
endloop
endfacet
facet normal 0.000746 -0.633684 -0.773592
outer loop
vertex 3.225056 0.139171 1.421180
vertex 3.222284 0.143234 1.417845
vertex 3.221816 0.144443 1.416853
endloop
endfacet
facet normal 0.000000 -0.471324 -0.881960
outer loop
vertex 3.221816 0.144443 1.416853
vertex 3.220577 0.148048 1.414926
vertex 3.220000 0.153212 1.412166
endloop
endfacet
facet normal 0.001431 -0.471574 -0.881825
outer loop
vertex 3.220000 0.153212 1.412166
vertex 3.220577 0.158376 1.409405
vertex 3.221730 0.161732 1.407612
endloop
endfacet
facet normal 0.000000 -0.290326 -0.956928
outer loop
vertex 3.221730 0.161732 1.407612
vertex 3.222284 0.163525 1.407068
vertex 3.225056 0.168622 1.405522
endloop
endfacet
facet normal 0.000000 -0.290111 -0.956993
outer loop
vertex 3.225056 0.168622 1.405522
vertex 3.228787 0.173089 1.404167
vertex 3.233333 0.176755 1.403055
endloop
endfacet
facet normal -0.000056 -0.290816 -0.956779
outer loop
vertex 3.233333 0.176755 1.403055
vertex 3.238520 0.179479 1.402228
vertex 3.241915 0.180491 1.401921
endloop
endfacet
facet normal 0.000000 -0.097414 -0.995244
outer loop
vertex 3.241915 0.180491 1.401921
vertex 3.250000 0.181860 1.401787
vertex 3.258085 0.180491 1.401921
endloop
endfacet
facet normal 0.000138 -0.290170 -0.956975
outer loop
vertex 3.258085 0.180491 1.401921
vertex 3.266667 0.176755 1.403055
vertex 3.274944 0.168622 1.405522
endloop
endfacet
facet normal -0.560363 -0.476005 -0.677800
outer loop
vertex 3.274944 0.168622 1.405522
vertex 3.278270 0.161732 1.407612
vertex 3.280000 0.153212 1.412166
endloop
endfacet
facet normal -0.547743 -0.303325 -0.779725
outer loop
vertex 3.280000 0.153212 1.412166
vertex 3.278184 0.144443 1.416853
vertex 3.274944 0.139171 1.421180
endloop
endfacet
facet normal 0.000055 -0.634433 -0.772978
outer loop
vertex 3.274944 0.139171 1.421180
vertex 3.266667 0.132686 1.426502
vertex 3.256328 0.129289 1.429289
endloop
endfacet
facet normal 0.000000 -0.773759 -0.633480
outer loop
vertex 3.256328 0.129289 1.429289
vertex 3.250000 0.128801 1.429885
vertex 3.243672 0.129289 1.429289
endloop
endfacet
facet normal -0.000074 -0.634433 -0.772978
outer loop
vertex 3.243672 0.129289 1.429289
vertex 3.233333 0.132686 1.426502
vertex 3.225056 0.139171 1.421180
endloop
endfacet
facet normal 0.547743 -0.303325 -0.779725
outer loop
vertex 3.225056 0.139171 1.421180
vertex 3.221816 0.144443 1.416853
vertex 3.220000 0.153212 1.412166
endloop
endfacet
facet normal 0.560354 -0.476035 -0.677786
outer loop
vertex 3.220000 0.153212 1.412166
vertex 3.221730 0.161732 1.407612
vertex 3.225056 0.168622 1.405522
endloop
endfacet
facet normal -0.000138 -0.290170 -0.956975
outer loop
vertex 3.225056 0.168622 1.405522
vertex 3.233333 0.176755 1.403055
vertex 3.241915 0.180491 1.401921
endloop
endfacet
facet normal 0.000000 -0.290318 -0.956930
outer loop
vertex 3.241915 0.180491 1.401921
vertex 3.258085 0.180491 1.401921
vertex 3.274944 0.168622 1.405522
endloop
endfacet
facet normal -0.261133 -0.453155 -0.852326
outer loop
vertex 3.274944 0.168622 1.405522
vertex 3.280000 0.153212 1.412166
vertex 3.274944 0.139171 1.421180
endloop
endfacet
facet normal 0.000000 -0.634345 -0.773050
outer loop
vertex 3.274944 0.139171 1.421180
vertex 3.256328 0.129289 1.429289
vertex 3.243672 0.129289 1.429289
endloop
endfacet
facet normal 0.100012 -0.511759 -0.853288
outer loop
vertex 3.243672 0.129289 1.429289
vertex 3.225056 0.139171 1.421180
vertex 3.220000 0.153212 1.412166
endloop
endfacet
facet normal 0.105272 -0.422642 -0.900162
outer loop
vertex 3.220000 0.153212 1.412166
vertex 3.225056 0.168622 1.405522
vertex 3.241915 0.180491 1.401921
endloop
endfacet
facet normal -0.072235 -0.468217 -0.880656
outer loop
vertex 3.241915 0.180491 1.401921
vertex 3.274944 0.168622 1.405522
vertex 3.274944 0.139171 1.421180
endloop
endfacet
facet normal -0.020273 -0.595097 -0.803398
outer loop
vertex 3.274944 0.139171 1.421180
vertex 3.243672 0.129289 1.429289
vertex 3.220000 0.153212 1.412166
endloop
endfacet
facet normal 0.051991 -0.387443 -0.920426
outer loop
vertex 3.241915 0.180491 1.401921
vertex 3.274944 0.139171 1.421180
vertex 3.220000 0.153212 1.412166
endloop
endfacet
endsolid inlet_n2
