solid inlet_s6
facet normal 0.000000 -0.290130 0.956987
outer loop
vertex 5.233333 0.176755 1.596945
vertex 5.228786 0.173089 1.595833
vertex 5.225056 0.168622 1.594478
endloop
endfacet
facet normal -0.000413 -0.290054 0.957010
outer loop
vertex 5.225056 0.168622 1.594478
vertex 5.222283 0.163525 1.592932
vertex 5.221730 0.161732 1.592388
endloop
endfacet
facet normal -0.000815 -0.472038 0.881578
outer loop
vertex 5.221730 0.161732 1.592388
vertex 5.220576 0.158376 1.590594
vertex 5.220000 0.153212 1.587834
endloop
endfacet
facet normal 0.000190 -0.471988 0.881605
outer loop
vertex 5.220000 0.153212 1.587834
vertex 5.220576 0.148048 1.585074
vertex 5.221816 0.144443 1.583147
endloop
endfacet
facet normal 0.000494 -0.635798 0.771855
outer loop
vertex 5.221816 0.144443 1.583147
vertex 5.222283 0.143234 1.582155
vertex 5.225056 0.139171 1.578820
endloop
endfacet
facet normal 0.000136 -0.634412 0.772995
outer loop
vertex 5.225056 0.139171 1.578820
vertex 5.228786 0.135609 1.575897
vertex 5.233333 0.132686 1.573498
endloop
endfacet
facet normal 0.000037 -0.634383 0.773019
outer loop
vertex 5.233333 0.132686 1.573498
vertex 5.238520 0.130514 1.571716
vertex 5.243671 0.129289 1.570711
endloop
endfacet
facet normal -0.001334 -0.780478 0.625182
outer loop
vertex 5.243671 0.129289 1.570711
vertex 5.244147 0.129192 1.570591
vertex 5.250000 0.128801 1.570115
endloop
endfacet
facet normal 0.001287 -0.780294 0.625412
outer loop
vertex 5.250000 0.128801 1.570115
vertex 5.255853 0.129192 1.570591
vertex 5.256329 0.129289 1.570711
endloop
endfacet
facet normal 0.000521 -0.635183 0.772362
outer loop
vertex 5.256329 0.129289 1.570711
vertex 5.261480 0.130514 1.571715
vertex 5.266667 0.132686 1.573498
endloop
endfacet
facet normal -0.000136 -0.634412 0.772995
outer loop
vertex 5.266667 0.132686 1.573498
vertex 5.271214 0.135609 1.575897
vertex 5.274944 0.139171 1.578820
endloop
endfacet
facet normal -0.000741 -0.635213 0.772337
outer loop
vertex 5.274944 0.139171 1.578820
vertex 5.277717 0.143234 1.582155
vertex 5.278184 0.144443 1.583147
endloop
endfacet
facet normal 0.000000 -0.471988 0.881605
outer loop
vertex 5.278184 0.144443 1.583147
vertex 5.279424 0.148048 1.585074
vertex 5.280000 0.153212 1.587834
endloop
endfacet
facet normal 0.000611 -0.472037 0.881579
outer loop
vertex 5.280000 0.153212 1.587834
vertex 5.279424 0.158376 1.590594
vertex 5.278270 0.161732 1.592388
endloop
endfacet
facet normal 0.000000 -0.290241 0.956954
outer loop
vertex 5.278270 0.161732 1.592388
vertex 5.277717 0.163525 1.592932
vertex 5.274944 0.168622 1.594478
endloop
endfacet
facet normal 0.000000 -0.290130 0.956987
outer loop
vertex 5.274944 0.168622 1.594478
vertex 5.271214 0.173089 1.595833
vertex 5.266667 0.176755 1.596945
endloop
endfacet
facet normal 0.000167 -0.290049 0.957012
outer loop
vertex 5.266667 0.176755 1.596945
vertex 5.261480 0.179479 1.597771
vertex 5.258084 0.180491 1.598078
endloop
endfacet
facet normal 0.000079 -0.098156 0.995171
outer loop
vertex 5.258084 0.180491 1.598078
vertex 5.255853 0.181231 1.598151
vertex 5.250000 0.181860 1.598213
endloop
endfacet
facet normal -0.000079 -0.098160 0.995171
outer loop
vertex 5.250000 0.181860 1.598213
vertex 5.244147 0.181231 1.598151
vertex 5.241916 0.180491 1.598078
endloop
endfacet
facet normal -0.000223 -0.289998 0.957027
outer loop
vertex 5.241916 0.180491 1.598078
vertex 5.238520 0.179479 1.597771
vertex 5.233333 0.176755 1.596945
endloop
endfacet
facet normal 0.000000 -0.290221 0.956960
outer loop
vertex 5.233333 0.176755 1.596945
vertex 5.225056 0.168622 1.594478
vertex 5.221730 0.161732 1.592388
endloop
endfacet
facet normal -0.000054 -0.471184 0.882035
outer loop
vertex 5.221730 0.161732 1.592388
vertex 5.220000 0.153212 1.587834
vertex 5.221816 0.144443 1.583147
endloop
endfacet
facet normal -0.000064 -0.634242 0.773134
outer loop
vertex 5.221816 0.144443 1.583147
vertex 5.225056 0.139171 1.578820
vertex 5.233333 0.132686 1.573498
endloop
endfacet
facet normal 0.033153 -0.571861 0.819680
outer loop
vertex 5.233333 0.132686 1.573498
vertex 5.243671 0.129289 1.570711
vertex 5.250000 0.128801 1.570115
endloop
endfacet
facet normal -0.033171 -0.571845 0.819691
outer loop
vertex 5.250000 0.128801 1.570115
vertex 5.256329 0.129289 1.570711
vertex 5.266667 0.132686 1.573498
endloop
endfacet
facet normal 0.000064 -0.634242 0.773134
outer loop
vertex 5.266667 0.132686 1.573498
vertex 5.274944 0.139171 1.578820
vertex 5.278184 0.144443 1.583147
endloop
endfacet
facet normal 0.000054 -0.471184 0.882035
outer loop
vertex 5.278184 0.144443 1.583147
vertex 5.280000 0.153212 1.587834
vertex 5.278270 0.161732 1.592388
endloop
endfacet
facet normal 0.000000 -0.290221 0.956960
outer loop
vertex 5.278270 0.161732 1.592388
vertex 5.274944 0.168622 1.594478
vertex 5.266667 0.176755 1.596945
endloop
endfacet
facet normal -0.052004 -0.397313 0.916208
outer loop
vertex 5.266667 0.176755 1.596945
vertex 5.258084 0.180491 1.598078
vertex 5.250000 0.181860 1.598213
endloop
endfacet
facet normal 0.051981 -0.397304 0.916214
outer loop
vertex 5.250000 0.181860 1.598213
vertex 5.241916 0.180491 1.598078
vertex 5.233333 0.176755 1.596945
endloop
endfacet
facet normal 0.253843 -0.454954 0.853569
outer loop
vertex 5.233333 0.176755 1.596945
vertex 5.221730 0.161732 1.592388
vertex 5.221816 0.144443 1.583147
endloop
endfacet
facet normal 0.011773 -0.627442 0.778574
outer loop
vertex 5.221816 0.144443 1.583147
vertex 5.233333 0.132686 1.573498
vertex 5.250000 0.128801 1.570115
endloop
endfacet
facet normal -0.011777 -0.627454 0.778564
outer loop
vertex 5.250000 0.128801 1.570115
vertex 5.266667 0.132686 1.573498
vertex 5.278184 0.144443 1.583147
endloop
endfacet
facet normal -0.253843 -0.454954 0.853569
outer loop
vertex 5.278184 0.144443 1.583147
vertex 5.278270 0.161732 1.592388
vertex 5.266667 0.176755 1.596945
endloop
endfacet
facet normal 0.000000 -0.241038 0.970516
outer loop
vertex 5.266667 0.176755 1.596945
vertex 5.250000 0.181860 1.598213
vertex 5.233333 0.176755 1.596945
endloop
endfacet
facet normal 0.166353 -0.436822 0.884032
outer loop
vertex 5.233333 0.176755 1.596945
vertex 5.221816 0.144443 1.583147
vertex 5.250000 0.128801 1.570115
endloop
endfacet
facet normal -0.166356 -0.436822 0.884032
outer loop
vertex 5.250000 0.128801 1.570115
vertex 5.278184 0.144443 1.583147
vertex 5.266667 0.176755 1.596945
endloop
endfacet
facet normal 0.000000 -0.488252 0.872703
outer loop
vertex 5.250000 0.128801 1.570115
vertex 5.266667 0.176755 1.596945
vertex 5.233333 0.176755 1.596945
endloop
endfacet
endsolid inlet_s6
