solid inlet_n6
facet normal -0.000056 0.290865 0.956764
outer loop
vertex 5.266667 0.176755 1.403055
vertex 5.261480 0.179479 1.402228
vertex 5.258084 0.180491 1.401921
endloop
endfacet
facet normal -0.000435 0.095491 0.995430
outer loop
vertex 5.258084 0.180491 1.401921
vertex 5.255853 0.181231 1.401849
vertex 5.250000 0.181860 1.401786
endloop
endfacet
facet normal 0.000475 0.095494 0.995430
outer loop
vertex 5.250000 0.181860 1.401786
vertex 5.244147 0.181231 1.401849
vertex 5.241916 0.180491 1.401921
endloop
endfacet
facet normal 0.000111 0.290814 0.956780
outer loop
vertex 5.241916 0.180491 1.401921
vertex 5.238520 0.179479 1.402228
vertex 5.233333 0.176755 1.403055
endloop
endfacet
facet normal 0.000000 0.290130 0.956987
outer loop
vertex 5.233333 0.176755 1.403055
vertex 5.228786 0.173089 1.404167
vertex 5.225056 0.168622 1.405522
endloop
endfacet
facet normal 0.000000 0.290054 0.957010
outer loop
vertex 5.225056 0.168622 1.405522
vertex 5.222283 0.163525 1.407068
vertex 5.221730 0.161732 1.407612
endloop
endfacet
facet normal -0.001427 0.472038 0.881577
outer loop
vertex 5.221730 0.161732 1.407612
vertex 5.220576 0.158376 1.409405
vertex 5.220000 0.153212 1.412166
endloop
endfacet
facet normal 0.000000 0.471988 0.881605
outer loop
vertex 5.220000 0.153212 1.412166
vertex 5.220576 0.148048 1.414926
vertex 5.221816 0.144443 1.416853
endloop
endfacet
facet normal -0.000494 0.635798 0.771855
outer loop
vertex 5.221816 0.144443 1.416853
vertex 5.222283 0.143234 1.417845
vertex 5.225056 0.139171 1.421180
endloop
endfacet
facet normal -0.000136 0.634412 0.772995
outer loop
vertex 5.225056 0.139171 1.421180
vertex 5.228786 0.135609 1.424103
vertex 5.233333 0.132686 1.426502
endloop
endfacet
facet normal -0.000037 0.634485 0.772935
outer loop
vertex 5.233333 0.132686 1.426502
vertex 5.238520 0.130514 1.428284
vertex 5.243672 0.129289 1.429289
endloop
endfacet
facet normal 0.000768 0.775973 0.630766
outer loop
vertex 5.243672 0.129289 1.429289
vertex 5.244147 0.129192 1.429408
vertex 5.250000 0.128801 1.429884
endloop
endfacet
facet normal -0.000768 0.776073 0.630643
outer loop
vertex 5.250000 0.128801 1.429884
vertex 5.255853 0.129192 1.429408
vertex 5.256328 0.129289 1.429289
endloop
endfacet
facet normal 0.000000 0.634485 0.772935
outer loop
vertex 5.256328 0.129289 1.429289
vertex 5.261480 0.130514 1.428284
vertex 5.266667 0.132686 1.426502
endloop
endfacet
facet normal 0.000136 0.634412 0.772995
outer loop
vertex 5.266667 0.132686 1.426502
vertex 5.271214 0.135609 1.424103
vertex 5.274944 0.139171 1.421180
endloop
endfacet
facet normal 0.000741 0.635213 0.772337
outer loop
vertex 5.274944 0.139171 1.421180
vertex 5.277717 0.143234 1.417845
vertex 5.278184 0.144443 1.416853
endloop
endfacet
facet normal 0.000000 0.471988 0.881605
outer loop
vertex 5.278184 0.144443 1.416853
vertex 5.279424 0.148048 1.414926
vertex 5.280000 0.153212 1.412166
endloop
endfacet
facet normal 0.001427 0.472036 0.881578
outer loop
vertex 5.280000 0.153212 1.412166
vertex 5.279424 0.158376 1.409405
vertex 5.278270 0.161732 1.407612
endloop
endfacet
facet normal 0.000000 0.290241 0.956954
outer loop
vertex 5.278270 0.161732 1.407612
vertex 5.277717 0.163525 1.407068
vertex 5.274944 0.168622 1.405522
endloop
endfacet
facet normal 0.000000 0.290130 0.956987
outer loop
vertex 5.274944 0.168622 1.405522
vertex 5.271214 0.173089 1.404167
vertex 5.266667 0.176755 1.403055
endloop
endfacet
facet normal 0.052066 0.397585 0.916087
outer loop
vertex 5.266667 0.176755 1.403055
vertex 5.258084 0.180491 1.401921
vertex 5.250000 0.181860 1.401786
endloop
endfacet
facet normal -0.052067 0.397575 0.916091
outer loop
vertex 5.250000 0.181860 1.401786
vertex 5.241916 0.180491 1.401921
vertex 5.233333 0.176755 1.403055
endloop
endfacet
facet normal 0.000000 0.290221 0.956960
outer loop
vertex 5.233333 0.176755 1.403055
vertex 5.225056 0.168622 1.405522
vertex 5.221730 0.161732 1.407612
endloop
endfacet
facet normal 0.000054 0.471184 0.882035
outer loop
vertex 5.221730 0.161732 1.407612
vertex 5.220000 0.153212 1.412166
vertex 5.221816 0.144443 1.416853
endloop
endfacet
facet normal 0.000064 0.634242 0.773134
outer loop
vertex 5.221816 0.144443 1.416853
vertex 5.225056 0.139171 1.421180
vertex 5.233333 0.132686 1.426502
endloop
endfacet
facet normal -0.032948 0.572215 0.819442
outer loop
vertex 5.233333 0.132686 1.426502
vertex 5.243672 0.129289 1.429289
vertex 5.250000 0.128801 1.429884
endloop
endfacet
facet normal 0.032936 0.572243 0.819422
outer loop
vertex 5.250000 0.128801 1.429884
vertex 5.256328 0.129289 1.429289
vertex 5.266667 0.132686 1.426502
endloop
endfacet
facet normal -0.000064 0.634242 0.773134
outer loop
vertex 5.266667 0.132686 1.426502
vertex 5.274944 0.139171 1.421180
vertex 5.278184 0.144443 1.416853
endloop
endfacet
facet normal -0.000054 0.471184 0.882035
outer loop
vertex 5.278184 0.144443 1.416853
vertex 5.280000 0.153212 1.412166
vertex 5.278270 0.161732 1.407612
endloop
endfacet
facet normal 0.000000 0.290221 0.956960
outer loop
vertex 5.278270 0.161732 1.407612
vertex 5.274944 0.168622 1.405522
vertex 5.266667 0.176755 1.403055
endloop
endfacet
facet normal 0.000000 0.241228 0.970468
outer loop
vertex 5.266667 0.176755 1.403055
vertex 5.250000 0.181860 1.401786
vertex 5.233333 0.176755 1.403055
endloop
endfacet
facet normal -0.253843 0.454954 0.853569
outer loop
vertex 5.233333 0.176755 1.403055
vertex 5.221730 0.161732 1.407612
vertex 5.221816 0.144443 1.416853
endloop
endfacet
facet normal -0.011719 0.627477 0.778547
outer loop
vertex 5.221816 0.144443 1.416853
vertex 5.233333 0.132686 1.426502
vertex 5.250000 0.128801 1.429884
endloop
endfacet
facet normal 0.011719 0.627478 0.778546
outer loop
vertex 5.250000 0.128801 1.429884
vertex 5.266667 0.132686 1.426502
vertex 5.278184 0.144443 1.416853
endloop
endfacet
facet normal 0.253843 0.454954 0.853569
outer loop
vertex 5.278184 0.144443 1.416853
vertex 5.278270 0.161732 1.407612
vertex 5.266667 0.176755 1.403055
endloop
endfacet
facet normal 0.000000 0.392727 0.919655
outer loop
vertex 5.266667 0.176755 1.403055
vertex 5.233333 0.176755 1.403055
vertex 5.221816 0.144443 1.416853
endloop
endfacet
facet normal 0.000000 0.640073 0.768314
outer loop
vertex 5.221816 0.144443 1.416853
vertex 5.250000 0.128801 1.429884
vertex 5.278184 0.144443 1.416853
endloop
endfacet
facet normal 0.000000 0.392718 0.919659
outer loop
vertex 5.221816 0.144443 1.416853
vertex 5.278184 0.144443 1.416853
vertex 5.266667 0.176755 1.403055
endloop
endfacet
endsolid inlet_n6
