solid north
facet normal 0.000000 0.000000 -1.000000
outer loop
vertex 8.000000 0.000000 0.000000
vertex 0.000000 0.000000 0.000000
vertex 0.045332 0.090664 0.000000
endloop
endfacet
facet normal 0.000000 0.000000 -1.000000
outer loop
vertex 0.045332 0.090664 0.000000
vertex 0.058620 0.111664 0.000000
vertex 0.078849 0.135935 0.000000
endloop
endfacet
facet normal 0.000000 0.000000 -1.000000
outer loop
vertex 0.078849 0.135935 0.000000
vertex 0.104038 0.161103 0.000000
vertex 0.131722 0.184703 0.000000
endloop
endfacet
facet normal 0.000000 0.000000 -1.000000
outer loop
vertex 0.131722 0.184703 0.000000
vertex 0.159191 0.204425 0.000000
vertex 3.218793 2.182300 0.000000
endloop
endfacet
facet normal 0.000000 0.000000 -1.000000
outer loop
vertex 3.218793 2.182300 0.000000
vertex 3.344591 2.249573 0.000000
vertex 3.501542 2.310261 0.000000
endloop
endfacet
facet normal 0.000000 0.000000 -1.000000
outer loop
vertex 3.501542 2.310261 0.000000
vertex 3.674281 2.358423 0.000000
vertex 3.845900 2.389345 0.000000
endloop
endfacet
facet normal 0.000000 0.000000 -1.000000
outer loop
vertex 3.845900 2.389345 0.000000
vertex 3.999600 2.400000 0.000000
vertex 4.000000 2.400000 0.000000
endloop
endfacet
facet normal 0.000000 0.000000 -1.000000
outer loop
vertex 4.000000 2.400000 0.000000
vertex 4.000400 2.400000 0.000000
vertex 4.154099 2.389345 0.000000
endloop
endfacet
facet normal 0.000000 0.000000 -1.000000
outer loop
vertex 4.154099 2.389345 0.000000
vertex 4.325719 2.358423 0.000000
vertex 4.498458 2.310261 0.000000
endloop
endfacet
facet normal 0.000000 0.000000 -1.000000
outer loop
vertex 4.498458 2.310261 0.000000
vertex 4.655409 2.249573 0.000000
vertex 4.781207 2.182300 0.000000
endloop
endfacet
facet normal 0.000000 0.000000 -1.000000
outer loop
vertex 4.781207 2.182300 0.000000
vertex 7.840809 0.204425 0.000000
vertex 7.868278 0.184703 0.000000
endloop
endfacet
facet normal 0.000000 0.000000 -1.000000
outer loop
vertex 7.868278 0.184703 0.000000
vertex 7.895962 0.161103 0.000000
vertex 7.921151 0.135935 0.000000
endloop
endfacet
facet normal 0.000000 0.000000 -1.000000
outer loop
vertex 7.921151 0.135935 0.000000
vertex 7.941380 0.111663 0.000000
vertex 7.954668 0.090664 0.000000
endloop
endfacet
facet normal 0.000000 0.000000 -1.000000
outer loop
vertex 7.954668 0.090664 0.000000
vertex 8.000000 0.000000 0.000000
vertex 0.045332 0.090664 0.000000
endloop
endfacet
facet normal 0.000000 0.000000 -1.000000
outer loop
vertex 0.045332 0.090664 0.000000
vertex 0.078849 0.135935 0.000000
vertex 0.131722 0.184703 0.000000
endloop
endfacet
facet normal 0.000000 0.000000 -1.000000
outer loop
vertex 0.131722 0.184703 0.000000
vertex 3.218793 2.182300 0.000000
vertex 3.501542 2.310261 0.000000
endloop
endfacet
facet normal 0.000000 0.000000 -1.000000
outer loop
vertex 3.501542 2.310261 0.000000
vertex 3.845900 2.389345 0.000000
vertex 4.000000 2.400000 0.000000
endloop
endfacet
facet normal 0.000000 0.000000 -1.000000
outer loop
vertex 4.000000 2.400000 0.000000
vertex 4.154099 2.389345 0.000000
vertex 4.498458 2.310261 0.000000
endloop
endfacet
facet normal 0.000000 0.000000 -1.000000
outer loop
vertex 4.498458 2.310261 0.000000
vertex 4.781207 2.182300 0.000000
vertex 7.868278 0.184703 0.000000
endloop
endfacet
facet normal 0.000000 0.000000 -1.000000
outer loop
vertex 7.868278 0.184703 0.000000
vertex 7.921151 0.135935 0.000000
vertex 7.954668 0.090664 0.000000
endloop
endfacet
facet normal 0.000000 0.000000 -1.000000
outer loop
vertex 7.954668 0.090664 0.000000
vertex 0.045332 0.090664 0.000000
vertex 0.131722 0.184703 0.000000
endloop
endfacet
facet normal 0.000000 0.000000 -1.000000
outer loop
vertex 0.131722 0.184703 0.000000
vertex 3.501542 2.310261 0.000000
vertex 4.000000 2.400000 0.000000
endloop
endfacet
facet normal 0.000000 0.000000 -1.000000
outer loop
vertex 4.000000 2.400000 0.000000
vertex 4.498458 2.310261 0.000000
vertex 7.868278 0.184703 0.000000
endloop
endfacet
facet normal 0.000000 0.000000 -1.000000
outer loop
vertex 7.868278 0.184703 0.000000
vertex 7.954668 0.090664 0.000000
vertex 0.131722 0.184703 0.000000
endloop
endfacet
facet normal 0.000000 0.000000 -1.000000
outer loop
vertex 0.131722 0.184703 0.000000
vertex 4.000000 2.400000 0.000000
vertex 7.868278 0.184703 0.000000
endloop
endfacet
endsolid north
